<?xml version="1.0" encoding="UTF-8"?>
<svg id="b" xmlns="http://www.w3.org/2000/svg" width="150" height="60" viewBox="0 0 150 60">
  <g id="c">
    <g>
      <g>
        <polygon points="79.825 15.662 79.825 10.119 69.557 0 57.415 3.634 50 10.941 46.039 7.038 19.434 15 0 24.576 2.331 26.873 22.453 26.873 24.993 30 22.453 33.127 2.331 33.127 0 35.424 19.434 45 46.039 52.962 50 49.059 57.415 56.366 69.557 60 79.825 49.881 79.825 44.338 85.451 44.338 100 30 85.451 15.662 79.825 15.662" fill="#ad2aad" />
        <path d="M70.31,30s-9.093,9.176-20.31,9.176-20.31-9.176-20.31-9.176c0,0,9.093-9.176,20.31-9.176s20.31,9.176,20.31,9.176Z" fill="#39b54a" />
      </g>
      <g>
        <g>
          <path d="M133.369,11.678s-15.301,6.678-27.277,6.678-16.092-6.678-16.092-6.678c0,0,4.116-6.678,16.092-6.678s27.277,6.678,27.277,6.678Z" fill="#39b54a" />
          <path d="M102.866,16.492c-7.949,0-11.675-3.418-12.866-4.815,1.187-1.393,4.912-4.814,12.866-4.814,7.563,0,16.811,3.128,21.246,4.815-4.436,1.686-13.684,4.814-21.246,4.814Z" fill="#5eff75" />
          <path d="M97.788,14.592c-4.812,0-7.067-2.069-7.788-2.915,.719-.843,2.973-2.914,7.788-2.914,4.578,0,10.176,1.894,12.861,2.915-2.685,1.021-8.283,2.914-12.861,2.914Z" fill="#b5ffc0" />
        </g>
        <g>
          <path d="M133.369,48.322s-15.301,6.678-27.277,6.678-16.092-6.678-16.092-6.678c0,0,4.116-6.678,16.092-6.678s27.277,6.678,27.277,6.678Z" fill="#39b54a" />
          <path d="M102.866,53.137c-7.949,0-11.675-3.418-12.866-4.815,1.187-1.393,4.912-4.814,12.866-4.814,7.563,0,16.811,3.128,21.246,4.815-4.436,1.686-13.684,4.814-21.246,4.814Z" fill="#5eff75" />
          <path d="M97.788,51.237c-4.812,0-7.067-2.069-7.788-2.915,.719-.843,2.973-2.914,7.788-2.914,4.578,0,10.176,1.894,12.861,2.915-2.685,1.021-8.283,2.914-12.861,2.914Z" fill="#b5ffc0" />
        </g>
        <g>
          <path d="M150,30s-15.301,6.678-27.277,6.678-16.092-6.678-16.092-6.678c0,0,4.116-6.678,16.092-6.678s27.277,6.678,27.277,6.678Z" fill="#39b54a" />
          <path d="M119.496,34.815c-7.949,0-11.675-3.418-12.866-4.815,1.187-1.393,4.912-4.814,12.866-4.814,7.563,0,16.811,3.128,21.246,4.815-4.436,1.686-13.684,4.814-21.246,4.814Z" fill="#5eff75" />
          <path d="M114.419,32.914c-4.812,0-7.067-2.069-7.788-2.915,.719-.843,2.973-2.914,7.788-2.914,4.578,0,10.176,1.894,12.861,2.915-2.685,1.021-8.283,2.914-12.861,2.914Z" fill="#b5ffc0" />
        </g>
      </g>
    </g>
  </g>
</svg>