<?xml version="1.0" encoding="UTF-8"?>
<svg xmlns="http://www.w3.org/2000/svg" width="2932.207" height="1876.368" viewBox="0 0 2932.207 1876.368">
  <g id="a" data-name="Bg">
    <rect x="1176.936" y="481.519" width="1280" height="720"/>
  </g>
  <g id="b" data-name="Layer 1">
    <g>
      <circle cx="1329.791" cy="928.417" r="2.319" fill="#c5d9e2"/>
      <circle cx="1322.281" cy="1008.811" r="2.319" fill="#c5d9e2"/>
      <circle cx="1370.245" cy="941.256" r=".795" fill="#c5d9e2"/>
      <circle cx="1387.946" cy="1008.015" r=".795" fill="#c5d9e2"/>
      <circle cx="1307.753" cy="975.733" r=".795" fill="#c5d9e2"/>
      <circle cx="1405.361" cy="973.336" r=".795" fill="#c5d9e2"/>
      <circle cx="1382.166" cy="905.218" r=".795" fill="#c5d9e2"/>
      <circle cx="1288.619" cy="952.284" r=".795" fill="#c5d9e2"/>
      <circle cx="1352.981" cy="985.067" r="1.37" fill="#c5d9e2"/>
      <circle cx="1398.643" cy="949.343" r="1.37" fill="#c5d9e2"/>
      <circle cx="1276.177" cy="922.95" r="1.37" fill="#c5d9e2"/>
    </g>
    <g>
      <g>
        <path d="M497.593,810.164v-80.496h140.669l34.17,26.198c4.406,3.377,6.933,8.499,6.933,14.05s-2.527,10.673-6.933,14.051l-34.17,26.197h-140.669Z" fill="#fff"/>
        <path d="M638.093,730.168l34.036,26.094c4.281,3.282,6.737,8.259,6.737,13.654s-2.456,10.372-6.737,13.654l-34.036,26.094h-139.999v-79.496h139.999m.339-1h-141.339v81.496h141.339l34.305-26.3c9.505-7.287,9.505-21.608,0-28.895l-34.305-26.3h0Z"/>
      </g>
      <g>
        <polygon points="635.54 740.181 654.593 754.789 654.593 785.043 635.54 799.651 635.54 740.181" fill="#fff"/>
        <path d="M636.04,741.195l18.053,13.841v29.761l-18.053,13.841v-57.443m-1-2.027v61.496l20.053-15.374v-30.748l-20.053-15.374h0Z"/>
      </g>
      <g>
        <g>
          <polygon points="468.799 730.893 496.593 743.701 496.593 756.328 468.799 769.135 468.799 730.893" fill="#fff"/>
          <path d="M469.299,731.674l26.794,12.346v11.988l-26.794,12.346v-36.68m-1-1.562v39.804l28.794-13.268v-13.268l-28.794-13.268h0Z"/>
        </g>
        <g>
          <polygon points="468.799 770.697 496.593 783.504 496.593 796.132 468.799 808.939 468.799 770.697" fill="#fff"/>
          <path d="M469.299,771.478l26.794,12.346v11.988l-26.794,12.346v-36.68m-1-1.562v39.804l28.794-13.268v-13.268l-28.794-13.268h0Z"/>
        </g>
      </g>
    </g>
    <g>
      <polygon points="506.137 524.192 506.137 443.696 646.806 443.696 699.304 483.944 646.806 524.192 506.137 524.192" fill="#fff"/>
      <path d="M646.636,444.196l51.845,39.748-51.845,39.748h-139.999v-79.496h139.999m.339-1h-141.339v81.496h141.339l53.15-40.748-53.15-40.748h0Z"/>
    </g>
    <g>
      <polygon points="644.084 454.209 663.137 468.816 663.137 499.071 644.084 513.679 644.084 454.209" fill="#fff"/>
      <path d="M644.584,455.222l18.053,13.841v29.761l-18.053,13.841v-57.443m-1-2.027v61.496l20.053-15.374v-30.748l-20.053-15.374h0Z"/>
    </g>
    <g>
      <g>
        <polygon points="477.343 444.92 505.137 457.728 505.137 470.355 477.343 483.163 477.343 444.92" fill="#fff"/>
        <path d="M477.843,445.702l26.794,12.346v11.987l-26.794,12.346v-36.68m-1-1.562v39.804l28.794-13.268v-13.268l-28.794-13.268h0Z"/>
      </g>
      <g>
        <polygon points="477.343 484.725 505.137 497.532 505.137 510.16 477.343 522.967 477.343 484.725" fill="#fff"/>
        <path d="M477.843,485.506l26.794,12.346v11.987l-26.794,12.346v-36.68m-1-1.562v39.804l28.794-13.268v-13.268l-28.794-13.268h0Z"/>
      </g>
    </g>
    <g>
      <polygon points="837.999 630.57 865.794 643.378 865.794 684.726 837.999 697.533 837.999 630.57" fill="#fff"/>
      <path d="M838.5,631.352l26.794,12.346v40.707l-26.794,12.346v-65.4m-1-1.562v68.524l28.794-13.268v-41.988l-28.794-13.268h0Z"/>
    </g>
    <g>
      <rect x="532.653" y="681.491" width="82.858" height="33.646" rx="11.5" ry="11.5" fill="#fff"/>
      <path d="M604.011,681.991c6.065,0,11,4.935,11,11v10.646c0,6.065-4.935,11-11,11h-59.858c-6.065,0-11-4.935-11-11v-10.646c0-6.065,4.935-11,11-11h59.858m0-1h-59.858c-6.6,0-12,5.4-12,12v10.646c0,6.6,5.4,12,12,12h59.858c6.6,0,12-5.4,12-12v-10.646c0-6.6-5.4-12-12-12h0Z"/>
    </g>
    <g>
      <polygon points="622.606 756.727 524.968 756.727 511.385 744.129 609.023 744.129 622.606 756.727" fill="#fff" stroke="#000" stroke-miterlimit="10"/>
      <polygon points="622.606 783.105 524.968 783.105 511.385 795.704 609.023 795.704 622.606 783.105" fill="#fff" stroke="#000" stroke-miterlimit="10"/>
    </g>
    <polygon points="319.88 796.049 343.039 822.181 319.88 848.314 275.716 848.314 298.875 822.181 275.716 796.049 298.875 769.916 343.039 769.916 319.88 796.049" fill="#fff" stroke="#000" stroke-miterlimit="10"/>
    <polygon points="572.242 1129.958 595.401 1156.091 572.242 1182.223 528.078 1182.223 551.237 1156.091 528.078 1129.958 551.237 1103.826 595.401 1103.826 572.242 1129.958" fill="#fff" stroke="#000" stroke-miterlimit="10"/>
    <polygon points="65.794 726.755 1.227 726.755 35.086 759.826 1.227 792.897 65.794 792.897 99.653 759.826 65.794 726.755" fill="#fff" stroke="#000" stroke-miterlimit="10"/>
    <polygon points="65.794 618.881 1.227 618.881 35.086 651.952 1.227 685.022 65.794 685.022 99.653 651.952 65.794 618.881" fill="#fff" stroke="#000" stroke-miterlimit="10"/>
    <g>
      <path d="M302.487,618.881c-40.459,16.759-85.919,16.759-126.378,0v-73.717c40.459-16.759,85.919-16.759,126.378,0v73.717Z" fill="#fff"/>
      <path d="M302.487,618.881c-40.459,16.759-85.919,16.759-126.378,0v-73.717c40.459-16.759,85.919-16.759,126.378,0v73.717Z" fill="none" stroke="#000" stroke-miterlimit="10"/>
    </g>
    <path d="M423.255,934.886c-17.829-14.119-43.592-22.989-72.244-22.989s-54.415,8.87-72.244,22.989v93.786c17.829,14.119,43.592,22.989,72.244,22.989s54.415-8.87,72.244-22.989v-93.786Z" fill="#fff" stroke="#000" stroke-miterlimit="10"/>
    <ellipse cx="351.011" cy="981.778" rx="64.075" ry="47.441" fill="#fff" stroke="#000" stroke-miterlimit="10"/>
    <path d="M283.634,1416.45c0,30.55-15.079,55.315-57.086,55.315s-95.033-24.765-95.033-55.315,53.027-55.315,95.033-55.315,57.086,24.765,57.086,55.315Z" fill="#fff" stroke="#000" stroke-miterlimit="10"/>
    <polygon points="551.987 891.963 482.696 891.963 543.72 810.664 613.011 810.664 551.987 891.963" fill="#fff" stroke="#000" stroke-miterlimit="10"/>
    <g>
      <rect x="483.196" y="824.696" width="82.858" height="33.646" rx="11.5" ry="11.5" fill="#fff"/>
      <path d="M554.554,825.196c6.065,0,11,4.935,11,11v10.646c0,6.065-4.935,11-11,11h-59.858c-6.065,0-11-4.935-11-11v-10.646c0-6.065,4.935-11,11-11h59.858m0-1h-59.858c-6.6,0-12,5.4-12,12v10.646c0,6.6,5.4,12,12,12h59.858c6.6,0,12-5.4,12-12v-10.646c0-6.6-5.4-12-12-12h0Z"/>
    </g>
    <ellipse cx="266.705" cy="1416.45" rx="9.449" ry="26.181" fill="#fff" stroke="#000" stroke-miterlimit="10"/>
    <circle cx="232.059" cy="1278.235" r="63.386" fill="#fff" stroke="#000" stroke-miterlimit="10"/>
    <path d="M143.039,911.897c-42.182,0-87.902,55.512-87.902,55.512,0,0,45.719,55.512,87.902,55.512s64.854-55.512,64.854-55.512c0,0-22.672-55.512-64.854-55.512Zm-10.695,94.498c-22.976,0-50.531-24.568-63.892-38.987,13.358-14.415,40.914-38.986,63.892-38.986,24.924,0,41.284,29.087,46.128,38.987-4.838,9.886-21.199,38.986-46.128,38.986Z" fill="#fff" stroke="#000" stroke-miterlimit="10"/>
    <rect x="6.031" y="955.204" width="92.913" height="24.409" fill="#fff" stroke="#000" stroke-miterlimit="10"/>
    <path d="M380.588,1509.56c-29.401,0-60.515,26.964-76.674,43.307h14.51c14.46-12.983,34.25-26.781,51.469-26.781,21.608,0,36.78,21.863,43.59,34.131,1.679,3.025,1.679,6.686,0,9.711-6.808,12.262-21.98,34.13-43.591,34.13-17.218,0-37.008-13.798-51.468-26.781h-14.511c16.159,16.343,47.273,43.307,76.674,43.307,34.947,0,56.503-38.101,62.869-51.172,1.333-2.737,1.333-5.941,0-8.679-6.367-13.071-27.922-51.172-62.869-51.172Z" fill="#fff" stroke="#000" stroke-miterlimit="10"/>
    <path d="M484.525,1358.535c-29.401,0-60.515,20.424-76.674,32.803h14.51c14.46-9.834,34.25-20.286,51.469-20.286,21.608,0,36.78,16.56,43.59,25.853,1.679,2.291,1.679,5.065,0,7.356-6.808,9.288-21.98,25.852-43.591,25.852-17.218,0-37.008-10.451-51.468-20.286h-14.511c16.159,12.379,47.273,32.803,76.674,32.803,34.947,0,56.503-28.86,62.869-38.761,1.333-2.074,1.333-4.5,0-6.574-6.367-9.901-27.922-38.761-62.869-38.761Z" fill="#fff" stroke="#000" stroke-miterlimit="10"/>
    <path d="M566.7,977.841h-110.63c-2.283,0-4.134,1.851-4.134,4.134s1.851,4.134,4.134,4.134h110.63c2.283,0,4.134-1.851,4.134-4.134s-1.851-4.134-4.134-4.134Z" fill="aqua"/>
    <path d="M232.65,1395.018c-18.416,1.348-36.905,1.348-55.321,0-1.14-.1-2.064,.752-2.064,1.91,0,1.159,.924,2.01,2.064,1.91,18.416-1.348,36.905-1.348,55.321,0,1.14,.1,2.064-.752,2.064-1.91,0-1.159-.924-2.01-2.064-1.91Z"/>
    <path d="M232.65,1410.219c-18.416,1.348-36.905,1.348-55.321,0-1.14-.1-2.064,.752-2.064,1.91,0,1.159,.924,2.01,2.064,1.91,18.416-1.348,36.905-1.348,55.321,0,1.14,.1,2.064-.752,2.064-1.91,0-1.159-.924-2.01-2.064-1.91Z"/>
    <path d="M232.65,1426.744c-18.416,1.348-36.905,1.348-55.321,0-1.14-.1-2.064,.752-2.064,1.91,0,1.159,.924,2.01,2.064,1.91,18.416-1.348,36.905-1.348,55.321,0,1.14,.1,2.064-.752,2.064-1.91,0-1.159-.924-2.01-2.064-1.91Z"/>
    <path d="M232.65,1443.27c-18.416,1.348-36.905,1.348-55.321,0-1.14-.1-2.064,.752-2.064,1.91,0,1.159,.924,2.01,2.064,1.91,18.416-1.348,36.905-1.348,55.321,0,1.14,.1,2.064-.752,2.064-1.91,0-1.159-.924-2.01-2.064-1.91Z"/>
    <path d="M438.219,1110.378c-18.416,1.348-36.905,1.348-55.321,0-1.14-.1-2.064,.752-2.064,1.91,0,1.159,.924,2.01,2.064,1.91,18.416-1.348,36.905-1.348,55.321,0,1.14,.1,2.064-.752,2.064-1.91,0-1.159-.924-2.01-2.064-1.91Z"/>
    <path d="M422.413,1127.375c-18.416,1.348-36.905,1.348-55.321,0-1.14-.1-2.064,.752-2.064,1.91,0,1.159,.924,2.01,2.064,1.91,18.416-1.348,36.905-1.348,55.321,0,1.14,.1,2.064-.752,2.064-1.91,0-1.159-.924-2.01-2.064-1.91Z"/>
    <path d="M438.219,1144.373c-18.416,1.348-36.905,1.348-55.321,0-1.14-.1-2.064,.752-2.064,1.91,0,1.159,.924,2.01,2.064,1.91,18.416-1.348,36.905-1.348,55.321,0,1.14,.1,2.064-.752,2.064-1.91,0-1.159-.924-2.01-2.064-1.91Z"/>
    <path d="M422.413,1161.37c-18.416,1.348-36.905,1.348-55.321,0-1.14-.1-2.064,.752-2.064,1.91,0,1.159,.924,2.01,2.064,1.91,18.416-1.348,36.905-1.348,55.321,0,1.14,.1,2.064-.752,2.064-1.91,0-1.159-.924-2.01-2.064-1.91Z"/>
    <path d="M422.413,1093.381c-18.416,1.348-36.905,1.348-55.321,0-1.14-.1-2.064,.752-2.064,1.91,0,1.159,.924,2.01,2.064,1.91,18.416-1.348,36.905-1.348,55.321,0,1.14,.1,2.064-.752,2.064-1.91,0-1.159-.924-2.01-2.064-1.91Z"/>
    <path d="M849.232,401.306l-2.958,4.542c-4.249,6.523-11.419,10.418-19.18,10.418-12.613,0-22.874-10.261-22.874-22.874s10.261-22.874,22.874-22.874c7.761,0,14.931,3.895,19.18,10.418l2.958,4.542h47.35l9.449-10h-51.378c-5.864-9.003-16.013-14.961-27.559-14.961-18.156,0-32.874,14.718-32.874,32.874s14.718,32.874,32.874,32.874c11.546,0,21.695-5.957,27.559-14.961h51.378l-9.449-10h-47.35Z" fill="#fff" stroke="#000" stroke-miterlimit="10"/>
    <path d="M868.739,541.023h-34.519l-3.846,5.905c-3.693,5.67-9.923,9.056-16.666,9.056-10.958,0-19.874-8.916-19.874-19.874s8.916-19.874,19.874-19.874c6.742,0,12.973,3.385,16.666,9.056l3.846,5.905h34.519l13-13h-40.472c-5.864-9.003-16.013-14.961-27.559-14.961-18.156,0-32.874,14.718-32.874,32.874s14.718,32.874,32.874,32.874c11.546,0,21.695-5.957,27.559-14.961h40.472l-13-13Z" fill="#fff" stroke="#000" stroke-miterlimit="10"/>
    <path d="M1028.187,541.023h-34.519l-3.846,5.905c-3.693,5.67-9.923,9.056-16.666,9.056-10.958,0-19.874-8.916-19.874-19.874s8.916-19.874,19.874-19.874c6.742,0,12.973,3.385,16.666,9.056l3.846,5.905h34.519l13-13h-40.472c-5.864-9.003-16.013-14.961-27.559-14.961-18.156,0-32.874,14.718-32.874,32.874s14.718,32.874,32.874,32.874c11.546,0,21.695-5.957,27.559-14.961h40.472l-13-13Z" fill="#fff" stroke="#000" stroke-miterlimit="10"/>
    <rect x="931.428" y="531.196" width="34.519" height="9.827"/>
    <g>
      <g>
        <path d="M1008.673,415.182c2.196-8.586,9.974-14.961,19.234-14.961,6.742,0,12.973,3.385,16.666,9.056l3.846,5.905h34.519l13-13h-40.472c-5.864-9.003-16.013-14.961-27.559-14.961-16.486,0-30.135,12.136-32.507,27.961h13.273Z" fill="#fff" stroke="#000" stroke-miterlimit="10"/>
        <path d="M1048.42,425.009l-3.846,5.905c-3.693,5.67-9.923,9.056-16.666,9.056-9.26,0-17.038-6.375-19.234-14.961h-13.273c2.372,15.825,16.021,27.961,32.507,27.961,11.546,0,21.695-5.957,27.559-14.961h40.472l-13-13h-34.519Z" fill="#fff" stroke="#000" stroke-miterlimit="10"/>
      </g>
      <circle cx="1026.623" cy="420.095" r="8.957" fill="#fff" stroke="#000" stroke-miterlimit="10"/>
    </g>
    <rect x="321.385" y="175.479" width="242.52" height="138.583" fill="#fff" stroke="#000" stroke-miterlimit="10"/>
    <g>
      <path d="M278.472,300.676c-.257,21.572-9.023,33.307-27.379,31.074-18.098-.907-45.786-15.781-77.936-16.805-32.15-3.313-59.838,6.475-77.936,6.893-18.356,1.458-27.121-6.454-27.379-21.162,.257-14.708,9.023-22.619,27.379-21.162,18.098,.418,45.786,10.206,77.936,6.893,32.15-1.025,59.838-15.899,77.936-16.805,18.356-2.233,27.122,9.502,27.379,31.074Z" fill="#fff"/>
      <path d="M278.472,300.676c-.257,21.572-9.023,33.307-27.379,31.074-18.098-.907-45.786-15.781-77.936-16.805-32.15-3.313-59.838,6.475-77.936,6.893-18.356,1.458-27.121-6.454-27.379-21.162,.257-14.708,9.023-22.619,27.379-21.162,18.098,.418,45.786,10.206,77.936,6.893,32.15-1.025,59.838-15.899,77.936-16.805,18.356-2.233,27.122,9.502,27.379,31.074Z" fill="none" stroke="#000" stroke-miterlimit="10"/>
    </g>
    <g>
      <path d="M310.283,415.182c-.257,21.572-30.778,33.307-49.134,31.074-18.098-.907-24.032-15.781-56.181-16.805-32.15-3.313-59.838,6.475-77.936,6.893-18.356,1.458-27.121-6.454-27.379-21.162,.257-14.708,9.023-22.619,27.379-21.162,18.098,.418,45.786,10.206,77.936,6.893,32.15-1.025,38.083-15.899,56.181-16.805,18.356-2.233,48.877,9.502,49.134,31.074Z" fill="#fff"/>
      <path d="M310.283,415.182c-.257,21.572-30.778,33.307-49.134,31.074-18.098-.907-24.032-15.781-56.181-16.805-32.15-3.313-59.838,6.475-77.936,6.893-18.356,1.458-27.121-6.454-27.379-21.162,.257-14.708,9.023-22.619,27.379-21.162,18.098,.418,45.786,10.206,77.936,6.893,32.15-1.025,38.083-15.899,56.181-16.805,18.356-2.233,48.877,9.502,49.134,31.074Z" fill="none" stroke="#000" stroke-miterlimit="10"/>
    </g>
    <polygon points="388.431 1262.5 341.364 1282.88 317.831 1303.261 341.364 1323.641 388.431 1344.021 411.964 1303.261 388.431 1262.5" fill="#fff"/>
    <polygon points="1257.547 227.793 1219.113 227.793 1208.774 240.711 1196.87 240.711 1193.769 244.585 1180.708 244.585 1177.606 240.711 1165.702 240.711 1161.863 235.914 1136.428 235.914 1134.858 237.876 1125.38 228.398 1126.211 228.398 1130.05 223.602 1141.955 223.602 1145.056 219.727 1175.95 219.727 1175.95 205.289 1145.056 205.289 1141.955 201.414 1130.05 201.414 1126.211 196.618 1100.776 196.618 1088.059 212.508 1100.776 228.398 1101.96 228.398 1124.446 250.885 1123.711 251.804 1124.69 253.028 1102.508 275.21 1100.776 275.21 1093.834 283.884 1092.216 285.502 1092.396 285.682 1088.059 291.1 1100.776 306.991 1126.211 306.991 1130.05 302.194 1141.955 302.194 1145.056 298.319 1175.95 298.319 1175.95 283.882 1145.056 283.882 1141.955 280.007 1130.05 280.007 1126.211 275.21 1125.929 275.21 1135.102 266.037 1136.428 267.695 1161.863 267.695 1165.702 262.898 1177.606 262.898 1180.708 259.023 1193.769 259.023 1196.87 262.898 1208.774 262.898 1219.113 275.816 1257.547 275.816 1276.764 251.804 1257.547 227.793" fill="#63bce2"/>
    <g>
      <g>
        <polygon points="1121.364 761.59 1085.315 761.59 1079.505 768.851 1085.315 776.111 1121.364 776.111 1127.174 768.851 1121.364 761.59" fill="aqua"/>
        <polygon points="1121.364 791.158 1085.315 791.158 1079.505 798.419 1085.315 805.679 1121.364 805.679 1127.174 798.419 1121.364 791.158" fill="aqua"/>
        <g>
          <polygon points="1071.974 752.469 1021.666 752.469 996.513 783.898 1021.666 815.327 1071.974 815.327 1097.128 783.898 1071.974 752.469" fill="#fff"/>
          <polygon points="946.73 763.098 913.438 763.098 896.791 783.898 913.438 804.698 946.73 804.698 963.377 783.898 946.73 763.098" fill="#fff"/>
          <polygon points="967.337 769.377 944.094 769.377 932.473 783.898 944.094 798.419 967.337 798.419 978.959 783.898 967.337 769.377" fill="#fff"/>
          <polygon points="1015.795 769.377 992.552 769.377 980.931 783.898 992.552 798.419 1015.795 798.419 1027.416 783.898 1015.795 769.377" fill="#fff"/>
          <rect x="948.055" y="774.449" width="63.78" height="18.898" fill="#fff"/>
        </g>
      </g>
      <g>
        <polygon points="900.064 711.662 866.772 711.662 850.125 732.462 866.772 753.261 900.064 753.261 916.711 732.462 900.064 711.662" fill="#fff"/>
        <polygon points="920.671 717.941 897.428 717.941 885.807 732.462 897.428 746.983 920.671 746.983 932.293 732.462 920.671 717.941" fill="#fff"/>
        <rect x="901.389" y="723.013" width="63.78" height="18.898" fill="#fff"/>
      </g>
      <g>
        <polygon points="900.064 814.535 866.772 814.535 850.125 835.334 866.772 856.134 900.064 856.134 916.711 835.334 900.064 814.535" fill="#fff"/>
        <polygon points="920.671 820.813 897.428 820.813 885.807 835.334 897.428 849.855 920.671 849.855 932.293 835.334 920.671 820.813" fill="#fff"/>
        <rect x="901.389" y="825.885" width="63.78" height="18.898" fill="#fff"/>
      </g>
      <rect x="882.647" y="731.209" width="21.677" height="63.78" transform="translate(-277.896 855.296) rotate(-45)" fill="#fff"/>
      <rect x="874.942" y="781.231" width="21.677" height="63.78" transform="translate(834.402 -388.184) rotate(45)" fill="#fff"/>
    </g>
    <polygon points="1036.553 911.564 960.468 911.564 914.255 957.776 960.468 1003.989 1036.553 1003.989 1082.765 957.776 1036.553 911.564" fill="#fff"/>
    <polygon points="757.338 911.564 681.253 911.564 635.04 957.776 681.253 1003.989 757.338 1003.989 803.55 957.776 757.338 911.564" fill="#fff"/>
    <polygon points="932.857 930.453 887.872 930.453 860.549 957.776 887.872 985.099 932.857 985.099 960.18 957.776 932.857 930.453" fill="#fff"/>
    <polygon points="829.934 930.453 784.948 930.453 757.625 957.776 784.948 985.099 829.934 985.099 857.257 957.776 829.934 930.453" fill="#fff"/>
    <rect x="811.331" y="941.044" width="95.142" height="33.465" fill="#fff"/>
    <polygon points="1704.58 92.697 1592.249 92.697 1536.084 189.979 1592.249 287.26 1704.58 287.26 1760.745 189.979 1704.58 92.697" fill="#fff"/>
    <rect x="1696.476" y="333.758" width="64.27" height="11.926" fill="aqua"/>
    <polygon points="2232.586 298.749 2156.501 321.856 2127 336.606 2130.539 340.145 2161.084 340.145 2164.939 344.962 2161.084 349.779 2130.539 349.779 2127 353.317 2156.501 368.068 2232.586 391.174 2278.799 344.962 2232.586 298.749" fill="#fff"/>
    <g>
      <g>
        <g>
          <polygon points="1605.943 815.892 1564.925 815.892 1544.415 841.519 1564.925 867.145 1605.943 867.145 1626.453 841.519 1605.943 815.892" fill="#63bce2"/>
          <path d="M1601.138,825.892h-9.92c7.311,9.135,7.311,22.118,0,31.252h9.92c7.311-9.135,7.311-22.117,0-31.252h0Z"/>
          <polygon points="1503.825 824.559 1476.68 824.559 1463.107 841.519 1476.68 858.478 1503.825 858.478 1517.398 841.519 1503.825 824.559" fill="#63bce2"/>
          <polygon points="1520.627 829.679 1501.676 829.679 1492.2 841.519 1501.676 853.358 1520.627 853.358 1530.103 841.519 1520.627 829.679" fill="#63bce2"/>
          <polygon points="1560.137 829.679 1541.186 829.679 1531.711 841.519 1541.186 853.358 1560.137 853.358 1569.613 841.519 1560.137 829.679" fill="#63bce2"/>
          <rect x="1504.905" y="833.814" width="52.003" height="15.408" fill="#63bce2"/>
        </g>
        <g>
          <polygon points="1465.776 782.621 1438.63 782.621 1425.057 799.58 1438.63 816.539 1465.776 816.539 1479.348 799.58 1465.776 782.621" fill="#63bce2"/>
          <polygon points="1482.578 787.74 1463.626 787.74 1454.151 799.58 1463.626 811.419 1482.578 811.419 1492.053 799.58 1482.578 787.74" fill="#63bce2"/>
          <rect x="1466.856" y="791.876" width="52.003" height="15.408" fill="#63bce2"/>
        </g>
        <g>
          <polygon points="1465.776 866.498 1438.63 866.498 1425.057 883.457 1438.63 900.416 1465.776 900.416 1479.348 883.457 1465.776 866.498" fill="#63bce2"/>
          <polygon points="1482.578 871.618 1463.626 871.618 1454.151 883.457 1463.626 895.297 1482.578 895.297 1492.053 883.457 1482.578 871.618" fill="#63bce2"/>
          <rect x="1466.856" y="875.753" width="52.003" height="15.408" fill="#63bce2"/>
        </g>
        <g>
          <polygon points="1743.305 831.288 1678.018 831.288 1673.28 832.683 1678.018 834.078 1743.305 834.078 1748.043 832.683 1743.305 831.288" fill="aqua"/>
          <polygon points="1700.994 848.959 1671.602 848.959 1666.864 850.354 1671.602 851.749 1700.994 851.749 1705.732 850.354 1700.994 848.959" fill="aqua"/>
        </g>
      </g>
      <g>
        <g>
          <g>
            <polygon points="2016.888 826.639 2016.888 820.885 2006.387 810.384 1993.97 814.155 1986.386 821.739 1982.336 817.688 1955.126 825.951 1935.251 835.889 1937.635 838.273 1958.214 838.273 1960.811 841.519 1958.214 844.764 1937.635 844.764 1935.251 847.148 1955.126 857.086 1982.336 865.349 1986.386 861.298 1993.97 868.882 2006.387 872.653 2016.888 862.152 2016.888 856.398 2022.642 856.398 2037.521 841.519 2022.642 826.639 2016.888 826.639" fill="#ad2aad"/>
            <path d="M2007.157,841.519s-9.3,9.523-20.771,9.523-20.771-9.523-20.771-9.523c0,0,9.3-9.523,20.771-9.523s20.771,9.523,20.771,9.523Z" fill="#39b54a"/>
          </g>
          <g>
            <g>
              <path d="M2069.657,821.48s-14.656,6.944-26.128,6.944-15.415-6.944-15.415-6.944c0,0,3.943-6.944,15.415-6.944s26.128,6.944,26.128,6.944Z" fill="#39b54a"/>
              <path d="M2040.438,826.487c-7.615,0-11.183-3.554-12.324-5.007,1.137-1.449,4.705-5.006,12.324-5.006,7.244,0,16.102,3.253,20.351,5.007-4.249,1.753-13.107,5.006-20.351,5.006Z" fill="#5eff75"/>
              <path d="M2035.575,824.511c-4.609,0-6.769-2.151-7.46-3.031,.688-.877,2.848-3.03,7.46-3.03,4.385,0,9.747,1.969,12.319,3.031-2.572,1.061-7.934,3.031-12.319,3.031Z" fill="#b5ffc0"/>
            </g>
            <g>
              <path d="M2069.657,859.587s-14.656,6.944-26.128,6.944-15.415-6.944-15.415-6.944c0,0,3.943-6.944,15.415-6.944s26.128,6.944,26.128,6.944Z" fill="#39b54a"/>
              <path d="M2040.438,864.593c-7.615,0-11.183-3.554-12.324-5.007,1.137-1.449,4.705-5.006,12.324-5.006,7.244,0,16.102,3.253,20.351,5.007-4.249,1.753-13.107,5.006-20.351,5.006Z" fill="#5eff75"/>
              <path d="M2035.575,862.617c-4.609,0-6.769-2.151-7.46-3.031,.688-.877,2.848-3.03,7.46-3.03,4.385,0,9.747,1.969,12.319,3.031-2.572,1.061-7.934,3.031-12.319,3.031Z" fill="#b5ffc0"/>
            </g>
            <g>
              <path d="M2085.587,840.534s-14.656,6.944-26.128,6.944-15.415-6.944-15.415-6.944c0,0,3.943-6.944,15.415-6.944s26.128,6.944,26.128,6.944Z" fill="#39b54a"/>
              <path d="M2056.368,845.54c-7.615,0-11.183-3.554-12.324-5.007,1.137-1.449,4.705-5.006,12.324-5.006,7.244,0,16.102,3.253,20.351,5.007-4.249,1.753-13.107,5.006-20.351,5.006Z" fill="#5eff75"/>
              <path d="M2051.505,843.564c-4.609,0-6.769-2.151-7.46-3.031,.688-.877,2.848-3.03,7.46-3.03,4.385,0,9.747,1.969,12.319,3.031-2.572,1.061-7.934,3.031-12.319,3.031Z" fill="#b5ffc0"/>
            </g>
          </g>
        </g>
        <g>
          <g>
            <polygon points="2140.116 731.375 2140.116 725.621 2129.615 715.12 2117.197 718.891 2109.614 726.475 2105.563 722.424 2078.354 730.687 2058.479 740.625 2060.863 743.009 2081.442 743.009 2084.039 746.255 2081.442 749.5 2060.863 749.5 2058.479 751.884 2078.354 761.822 2105.563 770.085 2109.614 766.035 2117.198 773.618 2129.615 777.389 2140.116 766.888 2140.116 761.135 2145.869 761.135 2160.749 746.255 2145.869 731.375 2140.116 731.375" fill="#ad2aad"/>
            <path d="M2130.385,746.255s-9.3,9.523-20.771,9.523-20.771-9.523-20.771-9.523c0,0,9.3-9.523,20.771-9.523s20.771,9.523,20.771,9.523Z" fill="#39b54a"/>
          </g>
          <g>
            <g>
              <path d="M2192.885,726.217s-14.656,6.944-26.128,6.944-15.415-6.944-15.415-6.944c0,0,3.943-6.944,15.415-6.944s26.128,6.944,26.128,6.944Z" fill="#39b54a"/>
              <path d="M2163.666,731.223c-7.615,0-11.183-3.554-12.324-5.007,1.137-1.449,4.705-5.006,12.324-5.006,7.244,0,16.102,3.253,20.351,5.007-4.249,1.753-13.107,5.006-20.351,5.006Z" fill="#5eff75"/>
              <path d="M2158.802,729.247c-4.609,0-6.769-2.151-7.46-3.031,.688-.877,2.848-3.03,7.46-3.03,4.385,0,9.747,1.969,12.319,3.031-2.572,1.061-7.934,3.031-12.319,3.031Z" fill="#b5ffc0"/>
            </g>
            <g>
              <path d="M2192.885,764.323s-14.656,6.944-26.128,6.944-15.415-6.944-15.415-6.944c0,0,3.943-6.944,15.415-6.944s26.128,6.944,26.128,6.944Z" fill="#39b54a"/>
              <path d="M2163.666,769.329c-7.615,0-11.183-3.554-12.324-5.007,1.137-1.449,4.705-5.006,12.324-5.006,7.244,0,16.102,3.253,20.351,5.007-4.249,1.753-13.107,5.006-20.351,5.006Z" fill="#5eff75"/>
              <path d="M2158.802,767.354c-4.609,0-6.769-2.151-7.46-3.031,.688-.877,2.848-3.03,7.46-3.03,4.385,0,9.747,1.969,12.319,3.031-2.572,1.061-7.934,3.031-12.319,3.031Z" fill="#b5ffc0"/>
            </g>
            <g>
              <path d="M2208.815,745.27s-14.656,6.944-26.128,6.944-15.415-6.944-15.415-6.944c0,0,3.943-6.944,15.415-6.944s26.128,6.944,26.128,6.944Z" fill="#39b54a"/>
              <path d="M2179.596,750.276c-7.615,0-11.183-3.554-12.324-5.007,1.137-1.449,4.705-5.006,12.324-5.006,7.244,0,16.102,3.253,20.351,5.007-4.249,1.753-13.107,5.006-20.351,5.006Z" fill="#5eff75"/>
              <path d="M2174.732,748.3c-4.609,0-6.769-2.151-7.46-3.031,.688-.877,2.848-3.03,7.46-3.03,4.385,0,9.747,1.969,12.319,3.031-2.572,1.061-7.934,3.031-12.319,3.031Z" fill="#b5ffc0"/>
            </g>
          </g>
        </g>
        <g>
          <g>
            <polygon points="2140.116 921.903 2140.116 916.149 2129.615 905.648 2117.197 909.419 2109.614 917.002 2105.563 912.952 2078.354 921.215 2058.479 931.153 2060.863 933.537 2081.442 933.537 2084.039 936.782 2081.442 940.028 2060.863 940.028 2058.479 942.412 2078.354 952.35 2105.563 960.613 2109.614 956.562 2117.198 964.146 2129.615 967.917 2140.116 957.416 2140.116 951.662 2145.869 951.662 2160.749 936.782 2145.869 921.903 2140.116 921.903" fill="#ad2aad"/>
            <path d="M2130.385,936.782s-9.3,9.523-20.771,9.523-20.771-9.523-20.771-9.523c0,0,9.3-9.523,20.771-9.523s20.771,9.523,20.771,9.523Z" fill="#39b54a"/>
          </g>
          <g>
            <g>
              <path d="M2192.885,916.744s-14.656,6.944-26.128,6.944-15.415-6.944-15.415-6.944c0,0,3.943-6.944,15.415-6.944s26.128,6.944,26.128,6.944Z" fill="#39b54a"/>
              <path d="M2163.666,921.751c-7.615,0-11.183-3.554-12.324-5.007,1.137-1.449,4.705-5.006,12.324-5.006,7.244,0,16.102,3.253,20.351,5.007-4.249,1.753-13.107,5.006-20.351,5.006Z" fill="#5eff75"/>
              <path d="M2158.802,919.775c-4.609,0-6.769-2.151-7.46-3.031,.688-.877,2.848-3.03,7.46-3.03,4.385,0,9.747,1.969,12.319,3.031-2.572,1.061-7.934,3.031-12.319,3.031Z" fill="#b5ffc0"/>
            </g>
            <g>
              <path d="M2192.885,954.85s-14.656,6.944-26.128,6.944-15.415-6.944-15.415-6.944c0,0,3.943-6.944,15.415-6.944s26.128,6.944,26.128,6.944Z" fill="#39b54a"/>
              <path d="M2163.666,959.857c-7.615,0-11.183-3.554-12.324-5.007,1.137-1.449,4.705-5.006,12.324-5.006,7.244,0,16.102,3.253,20.351,5.007-4.249,1.753-13.107,5.006-20.351,5.006Z" fill="#5eff75"/>
              <path d="M2158.802,957.881c-4.609,0-6.769-2.151-7.46-3.031,.688-.877,2.848-3.03,7.46-3.03,4.385,0,9.747,1.969,12.319,3.031-2.572,1.061-7.934,3.031-12.319,3.031Z" fill="#b5ffc0"/>
            </g>
            <g>
              <path d="M2208.815,935.797s-14.656,6.944-26.128,6.944-15.415-6.944-15.415-6.944c0,0,3.943-6.944,15.415-6.944s26.128,6.944,26.128,6.944Z" fill="#39b54a"/>
              <path d="M2179.596,940.804c-7.615,0-11.183-3.554-12.324-5.007,1.137-1.449,4.705-5.006,12.324-5.006,7.244,0,16.102,3.253,20.351,5.007-4.249,1.753-13.107,5.006-20.351,5.006Z" fill="#5eff75"/>
              <path d="M2174.732,938.828c-4.609,0-6.769-2.151-7.46-3.031,.688-.877,2.848-3.03,7.46-3.03,4.385,0,9.747,1.969,12.319,3.031-2.572,1.061-7.934,3.031-12.319,3.031Z" fill="#b5ffc0"/>
            </g>
          </g>
        </g>
      </g>
    </g>
    <g>
      <g>
        <polygon points="1984.518 313.236 1984.518 304.696 1968.931 289.109 1950.501 294.706 1939.244 305.962 1933.232 299.95 1892.846 312.215 1863.345 326.966 1866.884 330.504 1897.429 330.504 1901.284 335.321 1897.429 340.138 1866.884 340.138 1863.345 343.677 1892.846 358.428 1933.232 370.693 1939.244 364.681 1950.501 375.937 1968.931 381.534 1984.518 365.947 1984.518 357.407 1993.058 357.407 2015.144 335.321 1993.058 313.236 1984.518 313.236" fill="#ad2aad"/>
        <path d="M1970.075,335.321s-13.803,14.135-30.831,14.135-30.831-14.135-30.831-14.135c0,0,13.803-14.135,30.831-14.135s30.831,14.135,30.831,14.135Z" fill="#39b54a"/>
      </g>
      <g>
        <g>
          <path d="M2062.842,305.579s-21.754,10.307-38.782,10.307-22.88-10.307-22.88-10.307c0,0,5.852-10.307,22.88-10.307s38.782,10.307,38.782,10.307Z" fill="#39b54a"/>
          <path d="M2019.473,313.01c-11.302,0-16.599-5.275-18.292-7.432,1.688-2.15,6.984-7.431,18.292-7.431,10.753,0,23.901,4.829,30.207,7.431-6.307,2.603-19.455,7.431-30.207,7.431Z" fill="#5eff75"/>
          <path d="M2012.254,310.078c-6.842,0-10.048-3.193-11.073-4.499,1.022-1.301,4.228-4.498,11.073-4.498,6.509,0,14.468,2.923,18.285,4.499-3.818,1.575-11.777,4.498-18.285,4.498Z" fill="#b5ffc0"/>
        </g>
        <g>
          <path d="M2062.842,362.14s-21.754,10.307-38.782,10.307-22.88-10.307-22.88-10.307c0,0,5.852-10.307,22.88-10.307s38.782,10.307,38.782,10.307Z" fill="#39b54a"/>
          <path d="M2019.473,369.571c-11.302,0-16.599-5.275-18.292-7.432,1.688-2.15,6.984-7.431,18.292-7.431,10.753,0,23.901,4.829,30.207,7.431-6.307,2.603-19.455,7.431-30.207,7.431Z" fill="#5eff75"/>
          <path d="M2012.254,366.638c-6.842,0-10.048-3.193-11.073-4.499,1.022-1.301,4.228-4.498,11.073-4.498,6.509,0,14.468,2.923,18.285,4.499-3.818,1.575-11.777,4.498-18.285,4.498Z" fill="#b5ffc0"/>
        </g>
        <g>
          <path d="M2086.487,333.859s-21.754,10.307-38.782,10.307-22.88-10.307-22.88-10.307c0,0,5.852-10.307,22.88-10.307s38.782,10.307,38.782,10.307Z" fill="#39b54a"/>
          <path d="M2043.118,341.291c-11.302,0-16.599-5.275-18.292-7.432,1.688-2.15,6.984-7.431,18.292-7.431,10.753,0,23.901,4.829,30.207,7.431-6.307,2.603-19.455,7.431-30.207,7.431Z" fill="#5eff75"/>
          <path d="M2035.899,338.358c-6.842,0-10.048-3.193-11.073-4.499,1.022-1.301,4.228-4.498,11.073-4.498,6.509,0,14.468,2.923,18.285,4.499-3.818,1.575-11.777,4.498-18.285,4.498Z" fill="#b5ffc0"/>
        </g>
      </g>
    </g>
    <text transform="translate(1686.075 54.944)" fill="#fff" font-family="BankGothicBT-Medium, &apos;BankGothic Md BT&apos;" font-size="72.486"><tspan x="0" y="0">S</tspan><tspan x="58.647" y="0" letter-spacing="-.055em">P</tspan><tspan x="108.553" y="0" letter-spacing="-.018em">A</tspan><tspan x="163.165" y="0">CE B</tspan><tspan x="361.547" y="0" letter-spacing="-.068em">A</tspan><tspan x="412.515" y="0">TTLE</tspan></text>
    <g>
      <path d="M2373.339,387.835h-24.492v8.034h23.324c3.657,0,6.129,.625,7.415,1.876,1.286,1.251,1.929,3.575,1.929,6.973v5.132c0,3.398-.643,5.722-1.929,6.973-1.286,1.251-3.758,1.876-7.415,1.876h-23.112c-3.657,0-6.129-.625-7.415-1.876-1.286-1.25-1.929-3.575-1.929-6.973v-1.026l7.681-1.593v4.424h26.439v-8.53h-23.325c-3.634,0-6.088-.625-7.361-1.876-1.274-1.25-1.911-3.575-1.911-6.973v-4.141c0-3.397,.637-5.721,1.911-6.972,1.273-1.25,3.728-1.876,7.361-1.876h21.236c3.516,0,5.94,.602,7.273,1.805,1.333,1.203,2,3.339,2,6.406v.778l-7.681,1.805v-4.247Z" fill="#fff"/>
      <path d="M2399.565,418.699v-37.411h31.996c2.974,0,5.126,.572,6.46,1.716,1.332,1.145,1.999,2.991,1.999,5.54v8.353c0,2.525-.667,4.36-1.999,5.504-1.334,1.145-3.486,1.717-6.46,1.717h-23.431v14.582h-8.565Zm28.139-30.934h-19.573v9.91h19.573c1.51,0,2.542-.218,3.097-.655,.554-.437,.832-1.209,.832-2.318v-4c0-1.085-.278-1.846-.832-2.283-.555-.437-1.587-.655-3.097-.655Z" fill="#fff"/>
      <path d="M2442.321,418.699l21.166-37.411h8.388l21.449,37.411h-9.769l-4.495-8.176h-23.714l-4.354,8.176h-8.672Zm16.741-14.936h16.388l-8.07-15.219-8.317,15.219Z" fill="#fff"/>
      <path d="M2535.477,387.977h-23.466v23.678h23.466v-8.034l8.707,1.805v4.424c0,3.422-.644,5.751-1.929,6.99-1.286,1.239-3.734,1.858-7.345,1.858h-22.333c-3.634,0-6.088-.62-7.362-1.858s-1.911-3.568-1.911-6.99v-19.714c0-3.397,.637-5.721,1.911-6.972,1.274-1.25,3.729-1.876,7.362-1.876h22.333c3.61,0,6.059,.625,7.345,1.876,1.285,1.251,1.929,3.575,1.929,6.972v3.54l-8.707,1.38v-7.079Z" fill="#fff"/>
      <path d="M2562.129,418.699v-37.411h38.297v6.371h-29.59v8.353h17.272v6.371h-17.272v9.273h29.943v7.043h-38.65Z" fill="#fff"/>
      <path d="M2644.915,418.699v-37.411h32.067c2.949,0,5.084,.579,6.406,1.734,1.321,1.156,1.982,2.997,1.982,5.521v4.565c0,1.793-.556,3.227-1.664,4.3-1.109,1.074-2.702,1.741-4.778,2,2.147,.283,3.805,1.05,4.973,2.301s1.753,2.879,1.753,4.884v4.778c0,2.478-.909,4.318-2.726,5.521-1.817,1.204-4.578,1.805-8.282,1.805h-29.731Zm28.422-31.323h-19.856v8.919h19.856c1.51,0,2.554-.2,3.132-.602,.578-.401,.867-1.097,.867-2.088v-3.54c0-.967-.289-1.657-.867-2.07-.578-.413-1.622-.619-3.132-.619Zm0,15.078h-19.856v9.521h19.856c1.651,0,2.766-.248,3.345-.744,.577-.495,.867-1.368,.867-2.619v-2.832c0-1.25-.29-2.117-.867-2.601-.579-.483-1.693-.726-3.345-.726Z" fill="#fff"/>
      <path d="M2695.316,418.699l21.165-37.411h8.389l21.448,37.411h-9.769l-4.495-8.176h-23.714l-4.354,8.176h-8.671Zm16.741-14.936h16.387l-8.069-15.219-8.317,15.219Z" fill="#fff"/>
      <path d="M2770.846,387.977v30.722h-8.707v-30.722h-17.165v-6.689h43.109v6.689h-17.237Z" fill="#fff"/>
      <g>
        <path d="M2813.956,387.977v30.722h-8.707v-30.722h-17.165v-6.689h43.109v6.689h-17.237Z" fill="#fff"/>
        <path d="M2841.846,418.699v-37.411h8.706v30.368h28.067v7.043h-36.773Z" fill="#fff"/>
        <path d="M2891.363,418.699v-37.411h38.296v6.371h-29.59v8.353h17.272v6.371h-17.272v9.273h29.943v7.043h-38.649Z" fill="#fff"/>
      </g>
    </g>
    <g>
      <path d="M1444.947,180.111c-12.289-.042-24.578-.086-36.867-.133,0-3.393,0-6.786,0-10.179,12.904,.145,25.808,.282,38.713,.411v5.237c4.047-.716,8.094-1.426,12.141-2.132v-.952c0-3.752-1.054-6.376-3.161-7.88-2.107-1.503-5.94-2.301-11.497-2.387-11.189-.173-22.378-.355-33.567-.548-5.744-.1-9.622,.626-11.635,2.189-2.014,1.563-3.021,4.52-3.021,8.864v5.294c0,4.344,1.006,7.318,3.021,8.91,2.013,1.594,5.892,2.376,11.635,2.359,12.289-.035,24.579-.069,36.869-.1v10.513c-13.931,.133-27.861,.275-41.791,.426,0-1.872,0-3.743,0-5.615-4.047,.701-8.093,1.409-12.14,2.123,0,.438,0,.876,0,1.314,0,4.352,1.016,7.316,3.048,8.88,2.033,1.566,5.94,2.291,11.72,2.19,12.177-.211,24.354-.41,36.532-.598,5.781-.09,9.688-.916,11.721-2.475,2.033-1.56,3.049-4.412,3.049-8.567v-6.276c0-4.155-1.016-6.995-3.049-8.532-2.033-1.535-5.94-2.317-11.721-2.338Z" fill="#fff"/>
      <path d="M1549.042,165.418c-2.109-1.351-5.511-2.053-10.212-2.101-16.86-.174-33.72-.372-50.58-.593v44.958c4.513-.059,9.027-.117,13.54-.172v-17.389c12.346-.034,24.693-.065,37.04-.093,4.701-.011,8.103-.687,10.212-2.022,2.106-1.335,3.16-3.468,3.16-6.404v-9.713c0-2.963-1.054-5.117-3.16-6.47Zm-10.1,13.594c0,1.298-.44,2.201-1.315,2.71-.877,.51-2.509,.763-4.895,.76-10.314-.014-20.628-.028-30.942-.044v-11.818c10.314,.083,20.628,.161,30.942,.233,2.387,.017,4.019,.284,4.895,.8,.875,.517,1.316,1.41,1.315,2.679v4.679Z" fill="#fff"/>
      <path d="M1589.301,163.768c-11.154,14.206-22.308,28.57-33.461,43.153,4.57-.043,9.14-.084,13.709-.124,2.294-3.166,4.588-6.323,6.882-9.471,12.496-.058,24.993-.109,37.49-.152,2.369,3.09,4.738,6.174,7.107,9.253,5.148-.03,10.296-.057,15.444-.082-11.304-14.04-22.607-28.18-33.911-42.483-4.42-.03-8.84-.062-13.26-.095Zm-6.995,25.765c4.383-5.835,8.766-11.641,13.149-17.423,4.253,5.82,8.506,11.614,12.759,17.386-8.636,.011-17.272,.024-25.908,.038Z" fill="#fff"/>
      <path d="M1702.222,164.253c-11.77-.012-23.54-.036-35.31-.073-5.745-.018-9.625,.671-11.64,2.072-2.015,1.402-3.022,4.017-3.022,7.844v22.21c0,3.855,1.007,6.477,3.022,7.865,2.015,1.388,5.895,2.071,11.64,2.053,11.77-.036,23.54-.061,35.31-.073,5.708-.006,9.579-.701,11.612-2.088,2.032-1.387,3.049-3.995,3.049-7.826,0-1.651,0-3.302,0-4.952-4.589-.673-9.178-1.346-13.766-2.019v8.998c-12.367,.007-24.734,.023-37.101,.048v-26.614c12.367,.025,24.734,.041,37.101,.049v7.927c4.589-.514,9.178-1.028,13.766-1.543,0-1.321,0-2.642,0-3.962,0-3.803-1.018-6.405-3.049-7.806-2.034-1.401-5.904-2.102-11.612-2.108Z" fill="#fff"/>
      <path d="M1759.022,187.883c9.103,.003,18.206,.006,27.31,.011v-7.178c-9.103,.008-18.207,.014-27.31,.019v-9.372c15.595-.024,31.19-.063,46.785-.117v-7.208c-20.184,.105-40.368,.173-60.552,.204v41.921c20.37,.031,40.74,.1,61.111,.207v-7.97c-15.781-.052-31.563-.089-47.344-.112v-10.404Z" fill="#fff"/>
      <path d="M1985.654,184.481c3.283-.322,5.801-1.15,7.555-2.49,1.752-1.338,2.631-3.128,2.631-5.362v-5.686c0-3.145-1.045-5.424-3.134-6.827-2.091-1.404-5.466-2.062-10.129-1.985-16.901,.278-33.802,.529-50.703,.751v44.639c15.67,.206,31.34,.437,47.009,.691,5.857,.096,10.222-.573,13.095-2.023,2.872-1.449,4.309-3.724,4.309-6.811,0-1.984,0-3.968,0-5.952,0-2.498-.924-4.532-2.772-6.089-1.847-1.558-4.467-2.508-7.862-2.856Zm-40.237-14.458c10.465-.099,20.93-.206,31.396-.319,2.387-.026,4.038,.21,4.952,.709,.914,.5,1.371,1.347,1.371,2.54v4.367c0,1.223-.457,2.084-1.371,2.582-.914,.498-2.565,.75-4.952,.757-10.465,.033-20.93,.064-31.396,.094v-10.73Zm38.055,25.816c0,1.544-.459,2.618-1.371,3.219-.915,.602-2.678,.889-5.288,.862-10.465-.108-20.93-.209-31.396-.303v-11.454c10.465,.019,20.93,.04,31.396,.062,2.611,.005,4.373,.307,5.288,.906,.913,.599,1.371,1.671,1.371,3.214v3.495Z" fill="#fff"/>
      <path d="M2045.029,160.973c-11.155,16.383-22.309,32.294-33.464,47.806,4.57,.084,9.14,.17,13.71,.258,2.294-3.428,4.589-6.875,6.883-10.342,12.498,.139,24.996,.287,37.493,.444,2.369,3.637,4.738,7.297,7.107,10.981,5.148,.117,10.296,.237,15.445,.36-11.304-17.122-22.607-33.692-33.911-49.788-4.421,.095-8.842,.188-13.263,.28Zm-6.994,29.083c4.384-6.515,8.767-13.101,13.151-19.763,4.253,6.551,8.505,13.174,12.758,19.873-8.636-.038-17.272-.075-25.909-.11Z" fill="#fff"/>
      <path d="M2090.079,159.975v9.022c9.046-.138,18.092-.281,27.138-.429v42.532c4.589,.117,9.177,.237,13.766,.359v-43.121c18.13-.309,36.26-.64,54.389-.993v45.659c4.588,.139,9.177,.281,13.765,.424v-46.356c9.084-.183,18.167-.371,27.25-.565v-10.408c-45.434,1.511-90.87,2.8-136.309,3.877Z" fill="#fff"/>
      <path d="M2256.992,155.046c-4.588,.163-9.175,.323-13.763,.481,0,19.783,0,39.567,0,59.35,19.378,.668,38.755,1.377,58.131,2.127v-11.975c-14.789-.357-29.578-.699-44.368-1.026,0-16.319,0-32.638,0-48.958Z" fill="#fff"/>
      <path d="M2335.265,205.875v-16.437c9.101,.048,18.201,.097,27.302,.147v-11.686c-9.1,.084-18.201,.166-27.302,.246v-14.807c15.591-.424,31.181-.866,46.77-1.326v-11.977c-20.176,.903-40.354,1.759-60.531,2.571v65.194c20.364,.819,40.728,1.684,61.09,2.596v-13.252c-15.776-.441-31.552-.863-47.329-1.269Z" fill="#fff"/>
    </g>
    <g>
      <path d="M2373.339,317.203h-24.492v8.034h23.324c3.657,0,6.129,.625,7.415,1.876,1.286,1.251,1.929,3.575,1.929,6.973v5.132c0,3.398-.643,5.722-1.929,6.973-1.286,1.251-3.758,1.876-7.415,1.876h-23.112c-3.657,0-6.129-.625-7.415-1.876-1.286-1.25-1.929-3.575-1.929-6.973v-1.026l7.681-1.593v4.424h26.439v-8.53h-23.325c-3.634,0-6.088-.625-7.361-1.876-1.274-1.25-1.911-3.575-1.911-6.973v-4.141c0-3.397,.637-5.721,1.911-6.972,1.273-1.25,3.728-1.876,7.361-1.876h21.236c3.516,0,5.94,.602,7.273,1.805,1.333,1.203,2,3.339,2,6.406v.778l-7.681,1.805v-4.247Z" fill="#fff"/>
      <path d="M2399.565,348.067v-37.411h31.996c2.974,0,5.126,.572,6.46,1.716,1.332,1.145,1.999,2.991,1.999,5.54v8.353c0,2.525-.667,4.36-1.999,5.504-1.334,1.145-3.486,1.717-6.46,1.717h-23.431v14.582h-8.565Zm28.139-30.934h-19.573v9.91h19.573c1.51,0,2.542-.218,3.097-.655,.554-.437,.832-1.209,.832-2.318v-4c0-1.085-.278-1.846-.832-2.283-.555-.437-1.587-.655-3.097-.655Z" fill="#fff"/>
      <path d="M2442.321,348.067l21.166-37.411h8.388l21.449,37.411h-9.769l-4.495-8.176h-23.714l-4.354,8.176h-8.672Zm16.741-14.936h16.388l-8.07-15.219-8.317,15.219Z" fill="#fff"/>
      <path d="M2535.477,317.345h-23.466v23.678h23.466v-8.034l8.707,1.805v4.424c0,3.422-.644,5.751-1.929,6.99-1.286,1.239-3.734,1.858-7.345,1.858h-22.333c-3.634,0-6.088-.62-7.362-1.858s-1.911-3.568-1.911-6.99v-19.714c0-3.397,.637-5.721,1.911-6.972,1.274-1.25,3.729-1.876,7.362-1.876h22.333c3.61,0,6.059,.625,7.345,1.876,1.285,1.251,1.929,3.575,1.929,6.972v3.54l-8.707,1.38v-7.079Z" fill="#fff"/>
      <path d="M2562.129,348.067v-37.411h38.297v6.371h-29.59v8.353h17.272v6.371h-17.272v9.273h29.943v7.043h-38.65Z" fill="#fff"/>
      <path d="M2644.915,348.067v-37.411h32.067c2.949,0,5.084,.579,6.406,1.734,1.321,1.156,1.982,2.997,1.982,5.521v4.565c0,1.793-.556,3.227-1.664,4.3-1.109,1.074-2.702,1.741-4.778,2,2.147,.283,3.805,1.05,4.973,2.301s1.753,2.879,1.753,4.884v4.778c0,2.478-.909,4.318-2.726,5.521-1.817,1.204-4.578,1.805-8.282,1.805h-29.731Zm28.422-31.323h-19.856v8.919h19.856c1.51,0,2.554-.2,3.132-.602,.578-.401,.867-1.097,.867-2.088v-3.54c0-.967-.289-1.657-.867-2.07-.578-.413-1.622-.619-3.132-.619Zm0,15.078h-19.856v9.521h19.856c1.651,0,2.766-.248,3.345-.744,.577-.495,.867-1.368,.867-2.619v-2.832c0-1.25-.29-2.117-.867-2.601-.579-.483-1.693-.726-3.345-.726Z" fill="#fff"/>
      <path d="M2695.316,348.067l21.165-37.411h8.389l21.448,37.411h-9.769l-4.495-8.176h-23.714l-4.354,8.176h-8.671Zm16.741-14.936h16.387l-8.069-15.219-8.317,15.219Z" fill="#fff"/>
      <path d="M2770.846,317.345v30.722h-8.707v-30.722h-17.165v-6.689h43.109v6.689h-17.237Z" fill="#fff"/>
      <path d="M2816.15,317.345v30.722h-8.707v-30.722h-17.165v-6.689h43.109v6.689h-17.237Z" fill="#fff"/>
      <path d="M2844.041,348.067v-37.411h8.706v30.368h28.067v7.043h-36.773Z" fill="#fff"/>
      <path d="M2893.557,348.067v-37.411h38.296v6.371h-29.59v8.353h17.272v6.371h-17.272v9.273h29.943v7.043h-38.649Z" fill="#fff"/>
    </g>
    <g>
      <g>
        <path d="M1567.172,577.039c-3.648,0-6.141-.612-7.845-1.925-2.023-1.557-3.049-4.112-3.049-7.593v-3.839l2.802-.495c-1.03-1.521-1.551-3.537-1.551-6.021v-2.75c0-3.471,1.018-6.021,3.026-7.578,1.696-1.317,4.181-1.931,7.82-1.931,.195,0,.393,.002,.596,.006,5.81,.1,11.621,.194,17.432,.284,3.753,.058,6.327,.675,8.1,1.939,1.469,1.048,3.22,3.14,3.22,7.156v3.658l-1.127,.196c1.019,1.482,1.533,3.43,1.533,5.818v3.26c0,3.379-1.028,5.881-3.056,7.436-1.755,1.346-4.399,2.002-8.32,2.063-6.325,.097-12.649,.201-18.973,.31-.205,.004-.407,.006-.605,.006Z" fill="#0093b8"/>
        <path d="M1605.427,545.472l3.811,.05c8.756,.115,17.511,.217,26.268,.308,3.19,.033,5.576,.584,7.295,1.685,2.177,1.399,3.374,3.716,3.375,6.529v5.047c0,2.809-1.204,5.119-3.389,6.504-1.728,1.094-4.119,1.628-7.312,1.635-5.163,.012-10.327,.025-15.49,.038v8.998l-14.558,.186v-30.981Z" fill="#0093b8"/>
        <path d="M1641.316,569.961c5.533-7.235,11.23-14.581,17.414-22.458l1.14-1.453,10.54,.076,1.12,1.417c5.425,6.864,11.181,14.075,17.596,22.045l4.897,6.083-17.695,.091s-2.845-3.699-3.699-4.812c-5.236,.019-10.471,.04-15.706,.064-.817,1.123-3.565,4.913-3.565,4.913l-16.723,.153,4.68-6.12Z" fill="#0093b8"/>
        <path d="M1701.894,575.646c-3.841,0-6.329-.534-8.066-1.731-1.457-1.003-3.197-3.065-3.197-7.183v-11.539c0-4.091,1.731-6.154,3.184-7.164,1.716-1.194,4.285-1.75,8.083-1.75h.123c6.112,.019,12.224,.032,18.336,.038,3.832,.004,6.425,.562,8.163,1.759,1.467,1.012,3.213,3.073,3.213,7.154v5.422l-.855,.096,.855,.126v5.823c0,4.108-1.753,6.168-3.224,7.173-1.735,1.184-4.325,1.737-8.151,1.74-6.112,.006-12.225,.019-18.337,.038h-.128Zm3.413-11.643c3.917-.006,7.834-.011,11.751-.015v-6.259c-3.917-.003-7.834-.008-11.751-.015v6.289Z" fill="#0093b8"/>
        <path d="M1774.442,575.722c-10.562-.055-21.239-.091-31.735-.108l-3.756-.006v-29.291l3.756-.006c10.467-.016,21.046-.052,31.445-.106l3.781-.02v11.276s-7.995,.027-10.118,.033v6.543c2.219,.006,10.409,.032,10.409,.032v11.673l-3.782-.02Z" fill="#0093b8"/>
        <path d="M1864.03,576.683c-8.137-.132-16.275-.252-24.411-.359l-3.713-.049v-30.617l3.713-.049c8.777-.116,17.553-.246,26.33-.391l.437-.004c3.023,0,5.307,.547,6.984,1.673,2.124,1.428,3.293,3.796,3.293,6.67v2.954c0,1.512-.428,2.909-1.232,4.086,.963,1.318,1.465,2.893,1.465,4.641v3.093c0,3.046-1.529,5.496-4.306,6.897-1.945,.982-4.542,1.46-7.938,1.46,0,0-.412-.002-.622-.005Z" fill="#0093b8"/>
        <path d="M1912.857,577.628l-1.081-1.681c-.862-1.341-1.724-2.675-2.586-4.003-5.138-.064-10.278-.125-15.417-.183-.818,1.231-1.636,2.458-2.453,3.68l-1.144,1.709-9.175-.174-7.174-.132,4.189-5.825c5.924-8.238,11.755-16.568,17.331-24.758l1.092-1.604,10.833-.229,1.154,1.643c6.018,8.569,11.965,17.302,17.679,25.956l3.964,6.005-17.212-.404Z" fill="#0093b8"/>
        <path d="M1967.608,579.059v-23.536c-6.911,.132-13.821,.259-20.733,.378v22.568l-14.676-.382v-21.94c-3.427,.055-14.099,.219-14.099,.219v-12.181l3.673-.087c23.701-.562,47.516-1.239,70.782-2.013l3.887-.129v12.979s-10.666,.226-14.158,.298v24.278l-14.675-.452Z" fill="#0093b8"/>
        <path d="M2031.484,581.248c-10.045-.389-20.201-.76-30.185-1.104l-3.633-.125v-38.104l14.674-.514v25.654c6.46,.145,12.921,.295,19.381,.451l3.671,.089v13.804l-3.907-.151Z" fill="#0093b8"/>
        <path d="M2073.665,583.009c-10.469-.469-21.141-.922-31.721-1.348l-3.611-.145v-41.098l3.611-.145c10.509-.423,21.084-.872,31.431-1.335l3.93-.176v13.809l-3.651,.108c-6.882,.203-13.765,.399-20.647,.589v.237l14.184-.128v13.651l-14.184-.077v1.091c6.977,.182,13.954,.37,20.932,.565l3.657,.102v14.477l-3.93-.176Z" fill="#0093b8"/>
        <path d="M1784.207,612.703c-2.966,0-5.119-2.127-5.119-5.057v-2.9c0-1.519,.56-3.716,3.226-5.561,.347-.247,.723-.607,.723-1.719v-73.047c0-1.049-.321-1.377-.684-1.63-2.839-1.877-3.265-4.343-3.265-5.65v-2.714c0-3.051,2.207-5.181,5.366-5.181h19.249c2.966,0,5.119,2.127,5.119,5.057v2.838c0,1.266-.419,3.679-3.224,5.622-.446,.317-.724,.702-.724,1.658v73.047c0,1.187,.399,1.496,.68,1.689,2.843,1.879,3.269,4.307,3.269,5.591v2.776c0,3.051-2.206,5.181-5.366,5.181h-19.249Z" fill="#0093b8"/>
        <path d="M1810.428,612.703c-2.966,0-5.119-2.127-5.119-5.057v-2.9c0-1.518,.56-3.716,3.224-5.561,.348-.247,.724-.608,.724-1.719v-73.047c0-1.05-.321-1.377-.684-1.63-2.839-1.877-3.264-4.343-3.264-5.65v-2.714c0-3.051,2.206-5.181,5.366-5.181h19.249c2.966,0,5.119,2.127,5.119,5.057v2.838c0,1.266-.419,3.679-3.223,5.622-.446,.317-.724,.702-.724,1.658v73.047c0,1.188,.399,1.496,.68,1.689,2.842,1.879,3.268,4.307,3.268,5.591v2.776c0,3.051-2.206,5.181-5.366,5.181h-19.248Z" fill="#0093b8"/>
      </g>
      <g>
        <path d="M1586.692,558.317c-6.385-.022-12.769-.045-19.154-.069,0-1.763,0-3.526,0-5.288,6.704,.075,13.408,.147,20.113,.213v2.721c2.102-.372,4.205-.741,6.308-1.107v-.495c0-1.949-.548-3.313-1.642-4.094-1.095-.781-3.086-1.195-5.973-1.24-5.813-.09-11.626-.185-17.439-.285-2.984-.052-4.999,.325-6.045,1.137-1.047,.812-1.569,2.348-1.569,4.605v2.75c0,2.257,.523,3.802,1.569,4.629,1.046,.828,3.061,1.234,6.045,1.225,6.385-.018,12.77-.036,19.155-.052v5.462c-7.238,.069-14.475,.143-21.712,.221,0-.972,0-1.945,0-2.917-2.102,.364-4.205,.732-6.307,1.103,0,.228,0,.455,0,.683,0,2.261,.528,3.801,1.584,4.613,1.056,.814,3.086,1.19,6.089,1.138,6.326-.11,12.653-.213,18.98-.31,3.003-.047,5.033-.476,6.089-1.286,1.056-.81,1.584-2.292,1.584-4.451v-3.26c0-2.159-.528-3.634-1.584-4.433-1.056-.798-3.086-1.204-6.089-1.214Z" fill="#fff"/>
        <path d="M1640.773,550.684c-1.096-.702-2.863-1.066-5.306-1.092-8.76-.091-17.519-.193-26.278-.308v23.357c2.345-.031,4.69-.061,7.035-.09v-9.034c6.414-.017,12.829-.034,19.243-.048,2.442-.006,4.21-.357,5.306-1.05,1.094-.694,1.642-1.802,1.642-3.327v-5.046c0-1.54-.548-2.659-1.642-3.361Zm-5.247,7.062c0,.674-.229,1.143-.683,1.408-.456,.265-1.303,.397-2.543,.395-5.359-.007-10.717-.015-16.075-.023v-6.14c5.358,.043,10.717,.084,16.075,.121,1.24,.009,2.088,.147,2.543,.416,.455,.269,.683,.732,.683,1.392v2.431Z" fill="#fff"/>
        <path d="M1661.689,549.826c-5.795,7.381-11.59,14.843-17.384,22.42,2.374-.022,4.748-.044,7.123-.064,1.192-1.645,2.384-3.285,3.576-4.921,6.492-.03,12.985-.056,19.477-.079,1.231,1.605,2.461,3.208,3.692,4.807,2.675-.015,5.349-.029,8.024-.042-5.873-7.295-11.745-14.64-17.618-22.071-2.296-.016-4.593-.032-6.889-.049Zm-3.634,13.386c2.277-3.031,4.554-6.048,6.831-9.052,2.21,3.024,4.419,6.034,6.629,9.032-4.487,.006-8.973,.012-13.46,.02Z" fill="#fff"/>
        <path d="M1720.355,550.079c-6.115-.006-12.23-.019-18.345-.038-2.985-.009-5.001,.349-6.047,1.077-1.047,.728-1.57,2.087-1.57,4.075v11.539c0,2.003,.523,3.365,1.57,4.086,1.047,.721,3.063,1.076,6.047,1.066,6.115-.019,12.23-.032,18.345-.038,2.966-.003,4.977-.364,6.033-1.085,1.056-.721,1.584-2.076,1.584-4.066,0-.858,0-1.715,0-2.573-2.384-.35-4.768-.699-7.152-1.049v4.675c-6.425,.004-12.85,.012-19.275,.025v-13.827c6.425,.013,12.85,.021,19.275,.025v4.119c2.384-.267,4.768-.534,7.152-.802,0-.686,0-1.372,0-2.059,0-1.976-.529-3.328-1.584-4.055-1.057-.728-3.067-1.092-6.033-1.095Z" fill="#fff"/>
        <path d="M1749.865,562.355c4.729,.001,9.459,.003,14.188,.006v-3.729c-4.729,.004-9.459,.007-14.188,.01v-4.869c8.102-.013,16.204-.033,24.306-.061v-3.745c-10.486,.055-20.973,.09-31.459,.106v21.779c10.583,.016,21.166,.052,31.749,.108v-4.141c-8.199-.027-16.398-.046-24.597-.058v-5.405Z" fill="#fff"/>
        <path d="M1867.609,560.591c1.705-.167,3.014-.598,3.925-1.294,.91-.695,1.367-1.625,1.367-2.786v-2.954c0-1.634-.543-2.818-1.628-3.547-1.086-.729-2.84-1.071-5.262-1.031-8.781,.145-17.561,.275-26.342,.39v23.192c8.141,.107,16.282,.227,24.423,.359,3.043,.05,5.311-.297,6.803-1.051,1.492-.753,2.239-1.935,2.239-3.539,0-1.031,0-2.062,0-3.092,0-1.298-.48-2.354-1.44-3.164-.959-.809-2.321-1.303-4.085-1.484Zm-20.905-7.511c5.437-.052,10.874-.107,16.311-.166,1.24-.014,2.098,.109,2.573,.368,.475,.26,.712,.7,.712,1.32v2.269c0,.635-.237,1.083-.712,1.341-.475,.259-1.333,.39-2.573,.394-5.437,.017-10.874,.034-16.311,.049v-5.575Zm19.771,13.412c0,.802-.238,1.36-.712,1.672-.476,.313-1.391,.462-2.748,.448-5.437-.056-10.874-.109-16.311-.157v-5.951c5.437,.01,10.874,.021,16.311,.032,1.356,.003,2.272,.16,2.748,.471,.474,.311,.712,.868,.712,1.67v1.816Z" fill="#fff"/>
        <path d="M1898.456,548.378c-5.795,8.512-11.59,16.778-17.386,24.837,2.374,.044,4.748,.088,7.123,.134,1.192-1.781,2.384-3.572,3.576-5.373,6.493,.072,12.986,.149,19.479,.231,1.231,1.889,2.462,3.791,3.692,5.705,2.675,.061,5.349,.123,8.024,.187-5.873-8.895-11.745-17.504-17.618-25.866-2.297,.049-4.594,.098-6.891,.145Zm-3.634,15.11c2.277-3.385,4.555-6.806,6.832-10.268,2.209,3.404,4.419,6.844,6.628,10.325-4.487-.02-8.974-.039-13.461-.057Z" fill="#fff"/>
        <path d="M1921.861,547.86v4.687c4.7-.072,9.4-.146,14.099-.223v22.097c2.384,.061,4.768,.123,7.152,.186v-22.403c9.419-.16,18.838-.332,28.257-.516v23.722c2.384,.072,4.768,.146,7.151,.22v-24.084c4.719-.095,9.438-.193,14.158-.294v-5.408c-23.604,.785-47.21,1.455-70.817,2.014Z" fill="#fff"/>
        <path d="M2008.578,545.299c-2.383,.085-4.767,.168-7.15,.25,0,10.278,0,20.556,0,30.835,10.067,.347,20.135,.715,30.201,1.105v-6.221c-7.683-.185-15.367-.363-23.051-.533,0-8.478,0-16.957,0-25.435Z" fill="#fff"/>
        <path d="M2049.244,571.706v-8.54c4.728,.025,9.456,.05,14.184,.077v-6.071c-4.728,.044-9.456,.086-14.184,.128v-7.693c8.1-.22,16.199-.45,24.299-.689v-6.223c-10.482,.469-20.965,.914-31.448,1.336v33.871c10.58,.425,21.16,.875,31.739,1.349v-6.885c-8.196-.229-16.392-.449-24.589-.659Z" fill="#fff"/>
        <path d="M1801.112,597.465c0,2.139,.781,3.743,2.344,4.812,1.069,.7,1.604,1.522,1.604,2.468v2.776c0,.947-.535,1.419-1.604,1.419h-19.249c-.905,0-1.357-.432-1.357-1.296v-2.9c0-.904,.534-1.727,1.604-2.468,1.562-1.11,2.344-2.714,2.344-4.812v-73.047c0-2.098-.782-3.68-2.344-4.75-1.07-.699-1.604-1.542-1.604-2.53v-2.714c0-.946,.534-1.419,1.604-1.419h19.249c.904,0,1.357,.432,1.357,1.296v2.838c0,.947-.535,1.789-1.604,2.53-1.563,1.11-2.344,2.694-2.344,4.75v73.047Z" fill="#fff"/>
        <path d="M1827.332,597.465c0,2.139,.781,3.743,2.344,4.812,1.069,.7,1.604,1.522,1.604,2.468v2.776c0,.947-.535,1.419-1.604,1.419h-19.249c-.905,0-1.357-.432-1.357-1.296v-2.9c0-.904,.534-1.727,1.604-2.468,1.562-1.11,2.344-2.714,2.344-4.812v-73.047c0-2.098-.782-3.68-2.344-4.75-1.07-.699-1.604-1.542-1.604-2.53v-2.714c0-.946,.534-1.419,1.604-1.419h19.249c.904,0,1.357,.432,1.357,1.296v2.838c0,.947-.535,1.789-1.604,2.53-1.563,1.11-2.344,2.694-2.344,4.75v73.047Z" fill="#fff"/>
      </g>
    </g>
    <path d="M1144.121,1507.313c-77.748,0-150.842-30.276-205.818-85.253-54.976-54.976-85.253-128.069-85.253-205.817s30.277-150.843,85.253-205.818c54.976-54.977,128.071-85.253,205.818-85.253s150.842,30.276,205.818,85.253c54.976,54.976,85.252,128.07,85.252,205.818s-30.276,150.842-85.252,205.817c-54.976,54.977-128.07,85.253-205.818,85.253Z" fill="#bae3ff"/>
    <path d="M1144.121,1503.683c-76.778,0-148.961-29.899-203.251-84.189-54.29-54.291-84.19-126.474-84.19-203.251s29.899-148.961,84.19-203.252c54.29-54.29,126.473-84.189,203.251-84.189s148.961,29.899,203.251,84.189c54.29,54.291,84.189,126.474,84.189,203.252s-29.899,148.96-84.189,203.251c-54.29,54.29-126.473,84.189-203.251,84.189Z" fill="#73c7ff"/>
    <g>
      <circle cx="1322.758" cy="594.482" r="2.319" fill="#c5d9e2"/>
      <circle cx="1315.249" cy="674.876" r="2.319" fill="#c5d9e2"/>
      <circle cx="1363.212" cy="607.321" r=".795" fill="#c5d9e2"/>
      <circle cx="1380.914" cy="674.081" r=".795" fill="#c5d9e2"/>
      <circle cx="1300.721" cy="641.798" r=".795" fill="#c5d9e2"/>
      <circle cx="1398.329" cy="639.401" r=".795" fill="#c5d9e2"/>
      <circle cx="1375.133" cy="571.283" r=".795" fill="#c5d9e2"/>
      <circle cx="1281.587" cy="618.35" r=".795" fill="#c5d9e2"/>
      <circle cx="1345.949" cy="651.132" r="1.37" fill="#c5d9e2"/>
      <circle cx="1391.611" cy="615.408" r="1.37" fill="#c5d9e2"/>
      <circle cx="1269.145" cy="589.015" r="1.37" fill="#c5d9e2"/>
    </g>
    <g>
      <circle cx="1281.531" cy="747.006" r="2.319" fill="#c5d9e2"/>
      <circle cx="1274.022" cy="827.4" r="2.319" fill="#c5d9e2"/>
      <circle cx="1321.985" cy="759.846" r=".795" fill="#c5d9e2"/>
      <circle cx="1339.687" cy="826.605" r=".795" fill="#c5d9e2"/>
      <circle cx="1259.494" cy="794.323" r=".795" fill="#c5d9e2"/>
      <circle cx="1357.102" cy="791.926" r=".795" fill="#c5d9e2"/>
      <circle cx="1333.906" cy="723.808" r=".795" fill="#c5d9e2"/>
      <circle cx="1240.36" cy="770.874" r=".795" fill="#c5d9e2"/>
      <circle cx="1304.722" cy="803.657" r="1.37" fill="#c5d9e2"/>
      <circle cx="1350.384" cy="767.933" r="1.37" fill="#c5d9e2"/>
      <circle cx="1227.918" cy="741.54" r="1.37" fill="#c5d9e2"/>
    </g>
    <g>
      <circle cx="1518.153" cy="619.116" r="2.319" fill="#c5d9e2"/>
      <circle cx="1510.644" cy="699.51" r="2.319" fill="#c5d9e2"/>
      <circle cx="1558.607" cy="631.955" r=".795" fill="#c5d9e2"/>
      <circle cx="1576.309" cy="698.715" r=".795" fill="#c5d9e2"/>
      <circle cx="1496.116" cy="666.432" r=".795" fill="#c5d9e2"/>
      <circle cx="1593.724" cy="664.035" r=".795" fill="#c5d9e2"/>
      <circle cx="1570.528" cy="595.918" r=".795" fill="#c5d9e2"/>
      <circle cx="1476.982" cy="642.984" r=".795" fill="#c5d9e2"/>
      <circle cx="1541.343" cy="675.766" r="1.37" fill="#c5d9e2"/>
      <circle cx="1587.006" cy="640.042" r="1.37" fill="#c5d9e2"/>
      <circle cx="1464.54" cy="613.65" r="1.37" fill="#c5d9e2"/>
    </g>
    <g>
      <circle cx="1870.379" cy="665.791" r="2.319" fill="#c5d9e2"/>
      <circle cx="1862.87" cy="746.185" r="2.319" fill="#c5d9e2"/>
      <circle cx="1910.833" cy="678.63" r=".795" fill="#c5d9e2"/>
      <circle cx="1928.535" cy="745.39" r=".795" fill="#c5d9e2"/>
      <circle cx="1848.342" cy="713.107" r=".795" fill="#c5d9e2"/>
      <circle cx="1945.95" cy="710.71" r=".795" fill="#c5d9e2"/>
      <circle cx="1922.754" cy="642.593" r=".795" fill="#c5d9e2"/>
      <circle cx="1829.208" cy="689.659" r=".795" fill="#c5d9e2"/>
      <circle cx="1893.569" cy="722.441" r="1.37" fill="#c5d9e2"/>
      <circle cx="1939.232" cy="686.718" r="1.37" fill="#c5d9e2"/>
      <circle cx="1816.766" cy="660.325" r="1.37" fill="#c5d9e2"/>
    </g>
    <g>
      <circle cx="2388.874" cy="963.949" r="2.319" fill="#c5d9e2"/>
      <circle cx="2381.365" cy="1044.343" r="2.319" fill="#c5d9e2"/>
      <circle cx="2429.328" cy="976.788" r=".795" fill="#c5d9e2"/>
      <circle cx="2447.029" cy="1043.548" r=".795" fill="#c5d9e2"/>
      <circle cx="2366.836" cy="1011.265" r=".795" fill="#c5d9e2"/>
      <circle cx="2464.445" cy="1008.868" r=".795" fill="#c5d9e2"/>
      <circle cx="2441.249" cy="940.751" r=".795" fill="#c5d9e2"/>
      <circle cx="2347.703" cy="987.817" r=".795" fill="#c5d9e2"/>
      <circle cx="2412.064" cy="1020.599" r="1.37" fill="#c5d9e2"/>
      <circle cx="2457.727" cy="984.875" r="1.37" fill="#c5d9e2"/>
      <circle cx="2335.26" cy="958.483" r="1.37" fill="#c5d9e2"/>
    </g>
    <g>
      <circle cx="1566.511" cy="1020.85" r="2.319" fill="#c5d9e2"/>
      <circle cx="1559.002" cy="1101.244" r="2.319" fill="#c5d9e2"/>
      <circle cx="1606.965" cy="1033.689" r=".795" fill="#c5d9e2"/>
      <circle cx="1624.666" cy="1100.449" r=".795" fill="#c5d9e2"/>
      <circle cx="1544.473" cy="1068.166" r=".795" fill="#c5d9e2"/>
      <circle cx="1642.081" cy="1065.769" r=".795" fill="#c5d9e2"/>
      <circle cx="1618.886" cy="997.652" r=".795" fill="#c5d9e2"/>
      <circle cx="1525.34" cy="1044.718" r=".795" fill="#c5d9e2"/>
      <circle cx="1589.701" cy="1077.5" r="1.37" fill="#c5d9e2"/>
      <circle cx="1635.364" cy="1041.776" r="1.37" fill="#c5d9e2"/>
      <circle cx="1512.897" cy="1015.384" r="1.37" fill="#c5d9e2"/>
    </g>
    <g>
      <circle cx="1717.282" cy="663.394" r="2.319" fill="#c5d9e2"/>
      <circle cx="1709.772" cy="743.788" r="2.319" fill="#c5d9e2"/>
      <circle cx="1757.736" cy="676.233" r=".795" fill="#c5d9e2"/>
      <circle cx="1775.437" cy="742.993" r=".795" fill="#c5d9e2"/>
      <circle cx="1695.244" cy="710.71" r=".795" fill="#c5d9e2"/>
      <circle cx="1792.852" cy="708.313" r=".795" fill="#c5d9e2"/>
      <circle cx="1769.657" cy="640.196" r=".795" fill="#c5d9e2"/>
      <circle cx="1676.11" cy="687.262" r=".795" fill="#c5d9e2"/>
      <circle cx="1740.472" cy="720.044" r="1.37" fill="#c5d9e2"/>
      <circle cx="1786.134" cy="684.321" r="1.37" fill="#c5d9e2"/>
      <circle cx="1663.668" cy="657.928" r="1.37" fill="#c5d9e2"/>
    </g>
    <g>
      <circle cx="1705.075" cy="1161.962" r="1.723" fill="#c5d9e2"/>
      <circle cx="1751.253" cy="1123.674" r="1.723" fill="#c5d9e2"/>
      <circle cx="1690.569" cy="1133.966" r=".591" fill="#c5d9e2"/>
      <circle cx="1716.34" cy="1089.597" r=".591" fill="#c5d9e2"/>
      <circle cx="1741.508" cy="1148.683" r=".591" fill="#c5d9e2"/>
      <circle cx="1688.974" cy="1098.666" r=".591" fill="#c5d9e2"/>
      <circle cx="1665.375" cy="1146.635" r=".591" fill="#c5d9e2"/>
      <circle cx="1739.242" cy="1171.052" r=".591" fill="#c5d9e2"/>
      <circle cx="1722.653" cy="1120.02" r="1.018" fill="#c5d9e2"/>
      <circle cx="1679.899" cy="1114.799" r="1.018" fill="#c5d9e2"/>
      <circle cx="1730.368" cy="1192.998" r="1.018" fill="#c5d9e2"/>
    </g>
    <g>
      <circle cx="1966.27" cy="988.368" r="1.723" fill="#c5d9e2"/>
      <circle cx="2012.448" cy="950.08" r="1.723" fill="#c5d9e2"/>
      <circle cx="1951.764" cy="960.372" r=".591" fill="#c5d9e2"/>
      <circle cx="1977.535" cy="916.003" r=".591" fill="#c5d9e2"/>
      <circle cx="2002.703" cy="975.089" r=".591" fill="#c5d9e2"/>
      <circle cx="1950.168" cy="925.072" r=".591" fill="#c5d9e2"/>
      <circle cx="1926.57" cy="973.041" r=".591" fill="#c5d9e2"/>
      <circle cx="2000.437" cy="997.458" r=".591" fill="#c5d9e2"/>
      <circle cx="1983.848" cy="946.426" r="1.018" fill="#c5d9e2"/>
      <circle cx="1941.094" cy="941.205" r="1.018" fill="#c5d9e2"/>
      <circle cx="1991.563" cy="1019.404" r="1.018" fill="#c5d9e2"/>
    </g>
    <g>
      <circle cx="1603.643" cy="961.255" r="1.723" fill="#c5d9e2"/>
      <circle cx="1649.82" cy="922.967" r="1.723" fill="#c5d9e2"/>
      <circle cx="1589.136" cy="933.259" r=".591" fill="#c5d9e2"/>
      <circle cx="1614.907" cy="888.89" r=".591" fill="#c5d9e2"/>
      <circle cx="1640.076" cy="947.976" r=".591" fill="#c5d9e2"/>
      <circle cx="1587.541" cy="897.959" r=".591" fill="#c5d9e2"/>
      <circle cx="1563.942" cy="945.928" r=".591" fill="#c5d9e2"/>
      <circle cx="1637.809" cy="970.345" r=".591" fill="#c5d9e2"/>
      <circle cx="1621.22" cy="919.313" r="1.018" fill="#c5d9e2"/>
      <circle cx="1578.466" cy="914.092" r="1.018" fill="#c5d9e2"/>
      <circle cx="1628.936" cy="992.291" r="1.018" fill="#c5d9e2"/>
    </g>
    <g>
      <circle cx="1463.051" cy="1155.133" r="1.723" fill="#c5d9e2"/>
      <circle cx="1509.228" cy="1116.845" r="1.723" fill="#c5d9e2"/>
      <circle cx="1448.544" cy="1127.137" r=".591" fill="#c5d9e2"/>
      <circle cx="1474.316" cy="1082.767" r=".591" fill="#c5d9e2"/>
      <circle cx="1499.484" cy="1141.853" r=".591" fill="#c5d9e2"/>
      <circle cx="1446.949" cy="1091.837" r=".591" fill="#c5d9e2"/>
      <circle cx="1423.351" cy="1139.805" r=".591" fill="#c5d9e2"/>
      <circle cx="1497.217" cy="1164.223" r=".591" fill="#c5d9e2"/>
      <circle cx="1480.628" cy="1113.191" r="1.018" fill="#c5d9e2"/>
      <circle cx="1437.874" cy="1107.97" r="1.018" fill="#c5d9e2"/>
      <circle cx="1488.344" cy="1186.169" r="1.018" fill="#c5d9e2"/>
    </g>
    <g>
      <circle cx="2227.097" cy="1027.982" r="2.319" fill="#c5d9e2"/>
      <circle cx="2219.588" cy="1108.376" r="2.319" fill="#c5d9e2"/>
      <circle cx="2267.551" cy="1040.822" r=".795" fill="#c5d9e2"/>
      <circle cx="2285.252" cy="1107.581" r=".795" fill="#c5d9e2"/>
      <circle cx="2205.059" cy="1075.298" r=".795" fill="#c5d9e2"/>
      <circle cx="2302.667" cy="1072.901" r=".795" fill="#c5d9e2"/>
      <circle cx="2279.472" cy="1004.784" r=".795" fill="#c5d9e2"/>
      <circle cx="2185.926" cy="1051.85" r=".795" fill="#c5d9e2"/>
      <circle cx="2250.287" cy="1084.633" r="1.37" fill="#c5d9e2"/>
      <circle cx="2295.95" cy="1048.909" r="1.37" fill="#c5d9e2"/>
      <circle cx="2173.483" cy="1022.516" r="1.37" fill="#c5d9e2"/>
    </g>
    <g>
      <circle cx="2297.856" cy="796.526" r="2.319" fill="#c5d9e2"/>
      <circle cx="2290.347" cy="876.92" r="2.319" fill="#c5d9e2"/>
      <circle cx="2338.31" cy="809.365" r=".795" fill="#c5d9e2"/>
      <circle cx="2356.011" cy="876.124" r=".795" fill="#c5d9e2"/>
      <circle cx="2275.818" cy="843.842" r=".795" fill="#c5d9e2"/>
      <circle cx="2373.426" cy="841.445" r=".795" fill="#c5d9e2"/>
      <circle cx="2350.231" cy="773.327" r=".795" fill="#c5d9e2"/>
      <circle cx="2256.685" cy="820.393" r=".795" fill="#c5d9e2"/>
      <circle cx="2321.046" cy="853.176" r="1.37" fill="#c5d9e2"/>
      <circle cx="2366.709" cy="817.452" r="1.37" fill="#c5d9e2"/>
      <circle cx="2244.242" cy="791.059" r="1.37" fill="#c5d9e2"/>
    </g>
    <g>
      <circle cx="1784.185" cy="816.18" r="2.319" fill="#c5d9e2"/>
      <circle cx="1776.676" cy="896.574" r="2.319" fill="#c5d9e2"/>
      <circle cx="1824.639" cy="829.02" r=".795" fill="#c5d9e2"/>
      <circle cx="1842.341" cy="895.779" r=".795" fill="#c5d9e2"/>
      <circle cx="1762.148" cy="863.496" r=".795" fill="#c5d9e2"/>
      <circle cx="1859.756" cy="861.099" r=".795" fill="#c5d9e2"/>
      <circle cx="1836.56" cy="792.982" r=".795" fill="#c5d9e2"/>
      <circle cx="1743.014" cy="840.048" r=".795" fill="#c5d9e2"/>
      <circle cx="1807.376" cy="872.831" r="1.37" fill="#c5d9e2"/>
      <circle cx="1853.038" cy="837.107" r="1.37" fill="#c5d9e2"/>
      <circle cx="1730.572" cy="810.714" r="1.37" fill="#c5d9e2"/>
    </g>
    <g>
      <circle cx="1773.494" cy="998.502" r="2.319" fill="#c5d9e2"/>
      <circle cx="1765.985" cy="1078.896" r="2.319" fill="#c5d9e2"/>
      <circle cx="1813.948" cy="1011.341" r=".795" fill="#c5d9e2"/>
      <circle cx="1831.65" cy="1078.101" r=".795" fill="#c5d9e2"/>
      <circle cx="1751.457" cy="1045.818" r=".795" fill="#c5d9e2"/>
      <circle cx="1849.065" cy="1043.421" r=".795" fill="#c5d9e2"/>
      <circle cx="1825.869" cy="975.304" r=".795" fill="#c5d9e2"/>
      <circle cx="1732.323" cy="1022.37" r=".795" fill="#c5d9e2"/>
      <circle cx="1796.684" cy="1055.152" r="1.37" fill="#c5d9e2"/>
      <circle cx="1842.347" cy="1019.428" r="1.37" fill="#c5d9e2"/>
      <circle cx="1719.881" cy="993.036" r="1.37" fill="#c5d9e2"/>
    </g>
    <g>
      <circle cx="2000.86" cy="1089.762" r="2.319" fill="#c5d9e2"/>
      <circle cx="1993.35" cy="1170.156" r="2.319" fill="#c5d9e2"/>
      <circle cx="2041.314" cy="1102.602" r=".795" fill="#c5d9e2"/>
      <circle cx="2059.015" cy="1169.361" r=".795" fill="#c5d9e2"/>
      <circle cx="1978.822" cy="1137.078" r=".795" fill="#c5d9e2"/>
      <circle cx="2076.43" cy="1134.681" r=".795" fill="#c5d9e2"/>
      <circle cx="2053.235" cy="1066.564" r=".795" fill="#c5d9e2"/>
      <circle cx="1959.688" cy="1113.63" r=".795" fill="#c5d9e2"/>
      <circle cx="2024.05" cy="1146.413" r="1.37" fill="#c5d9e2"/>
      <circle cx="2069.712" cy="1110.689" r="1.37" fill="#c5d9e2"/>
      <circle cx="1947.246" cy="1084.296" r="1.37" fill="#c5d9e2"/>
    </g>
    <g>
      <circle cx="2392.498" cy="1155.791" r="2.319" fill="#c5d9e2"/>
      <circle cx="2384.989" cy="1236.185" r="2.319" fill="#c5d9e2"/>
      <circle cx="2432.952" cy="1168.63" r=".795" fill="#c5d9e2"/>
      <circle cx="2450.653" cy="1235.39" r=".795" fill="#c5d9e2"/>
      <circle cx="2370.46" cy="1203.107" r=".795" fill="#c5d9e2"/>
      <circle cx="2468.069" cy="1200.71" r=".795" fill="#c5d9e2"/>
      <circle cx="2444.873" cy="1132.593" r=".795" fill="#c5d9e2"/>
      <circle cx="2351.327" cy="1179.659" r=".795" fill="#c5d9e2"/>
      <circle cx="2415.688" cy="1212.441" r="1.37" fill="#c5d9e2"/>
      <circle cx="2461.351" cy="1176.718" r="1.37" fill="#c5d9e2"/>
      <circle cx="2338.884" cy="1150.325" r="1.37" fill="#c5d9e2"/>
    </g>
    <g>
      <circle cx="2306.228" cy="574.745" r="2.319" fill="#c5d9e2"/>
      <circle cx="2298.719" cy="655.139" r="2.319" fill="#c5d9e2"/>
      <circle cx="2346.682" cy="587.584" r=".795" fill="#c5d9e2"/>
      <circle cx="2364.384" cy="654.343" r=".795" fill="#c5d9e2"/>
      <circle cx="2284.19" cy="622.061" r=".795" fill="#c5d9e2"/>
      <circle cx="2381.799" cy="619.664" r=".795" fill="#c5d9e2"/>
      <circle cx="2358.603" cy="551.546" r=".795" fill="#c5d9e2"/>
      <circle cx="2265.057" cy="598.612" r=".795" fill="#c5d9e2"/>
      <circle cx="2329.418" cy="631.395" r="1.37" fill="#c5d9e2"/>
      <circle cx="2375.081" cy="595.671" r="1.37" fill="#c5d9e2"/>
      <circle cx="2252.615" cy="569.278" r="1.37" fill="#c5d9e2"/>
    </g>
    <g>
      <circle cx="2066.904" cy="610.041" r="2.319" fill="#c5d9e2"/>
      <circle cx="2059.394" cy="690.435" r="2.319" fill="#c5d9e2"/>
      <circle cx="2107.358" cy="622.88" r=".795" fill="#c5d9e2"/>
      <circle cx="2125.059" cy="689.64" r=".795" fill="#c5d9e2"/>
      <circle cx="2044.866" cy="657.357" r=".795" fill="#c5d9e2"/>
      <circle cx="2142.474" cy="654.96" r=".795" fill="#c5d9e2"/>
      <circle cx="2119.279" cy="586.843" r=".795" fill="#c5d9e2"/>
      <circle cx="2025.732" cy="633.909" r=".795" fill="#c5d9e2"/>
      <circle cx="2090.094" cy="666.691" r="1.37" fill="#c5d9e2"/>
      <circle cx="2135.756" cy="630.967" r="1.37" fill="#c5d9e2"/>
      <circle cx="2013.29" cy="604.575" r="1.37" fill="#c5d9e2"/>
    </g>
    <circle cx="1516.246" cy="841.519" r="124.248" fill="none" stroke="lime" stroke-miterlimit="10"/>
    <g>
      <path d="M1415.04,1139.181c-7.761,16.277-26.32,28.071-32.016,45.84-2.292,7.148-2.321,14.791-3.266,22.238-2.668,21.019-13.043,40.973-28.716,55.231-1.777,1.617-3.786,3.235-6.18,3.443-2.366,.206-4.597-1.009-6.661-2.184-8.618-4.907-17.373-9.92-24.189-17.124-6.816-7.204-11.53-17.055-10.258-26.891,1.149-8.882,6.843-16.383,11.157-24.232,4.314-7.849,7.292-17.72,2.917-25.535-.56-1.001-1.267-1.974-2.279-2.513-1.227-.654-2.697-.575-4.086-.507-11.483,.558-23.061-.882-34.058-4.236-4.816-1.469-9.9-3.618-12.345-8.019-4.381-7.889,2.058-17.812,.091-26.619-.233-1.044-.624-2.119-1.461-2.785-1.132-.9-2.732-.809-4.172-.674-6.126,.576-12.251,1.151-18.377,1.727-2.622,.246-5.426,.458-7.734-.81-4.193-2.302-4.641-8.003-6.671-12.333-4.167-8.888-15.408-11.951-25.22-11.656-9.812,.295-19.7,2.882-29.332,.989-3.008-.591-6.04-1.684-8.185-3.873-3.03-3.092-3.744-7.77-3.658-12.098,.387-19.456,14.238-37.014,31.766-45.469s38.04-8.88,57.144-5.176c19.105,3.704,37.202,11.271,55.332,18.343,2.227,.869,4.949,1.67,6.831,.196,.89-.697,1.382-1.774,1.8-2.823,4.333-10.874,4.615-24.028,13.015-32.18,3.505-3.402,8.05-5.431,12.874-6.361-17.528-16.828-37.233-31.4-58.645-43.272-.006,.048-.002,.094-.009,.143-.366,2.552-2.237,4.597-4.081,6.398-19.998,19.536-47.768,30.889-75.725,30.956,4.705-6.542,8.814-13.513,12.26-20.797,.925-1.955,1.714-4.525,.2-6.068-1.081-1.102-2.831-1.089-4.371-.975-18.997,1.41-37.685,6.85-54.47,15.858-3.764,2.02-8.021,5.821-6.312,9.736,7.859-.984,15.816-1.19,23.715-.613-2.516,11.411-14.078,18.382-25.16,22.086-11.082,3.705-23.182,5.737-32.275,13.076,5.721,3.259,11.441,6.518,17.162,9.777,.856,.487,1.745,1.007,2.273,1.838,.585,.921,.631,2.083,.53,3.169-.626,6.674-6.212,12.1-12.536,14.322-6.324,2.222-13.259,1.792-19.89,.813-13.755-2.032-27.165-6.302-41.026-7.397-24.964-1.972-49.614,6.48-72.207,17.278-22.593,10.798-44.059,24.078-67.521,32.831-2.312-17.876,11.974-33.445,26.511-44.102,14.536-10.658,31.366-20.428,38.364-37.039,5.201-12.346,4.774-28.024,15.082-36.581,4.512-3.746,10.369-5.379,16.061-6.792,17.163-4.262,34.6-7.419,52.168-9.447,11.036-1.274,22.236-2.125,32.788-5.6,12.036-3.964,22.707-11.168,34.209-16.484,19.431-8.98,41.367-12.463,62.625-9.944l.533-2.539c5.203,8.054,17.461,5.138,26.72,7.63,9.402,2.53,16.669,11.36,26.389,11.918,3.964,.227,7.825-.982,11.732-1.785-36.425-17.198-77.123-26.832-120.077-26.832-155.52,0-281.594,126.074-281.594,281.594s126.074,281.594,281.594,281.594,281.594-126.074,281.594-281.594c0-26.72-3.722-52.57-10.675-77.062Zm-166.416,127.447c-2.975,22.2-28.361,34.915-35.199,56.244-2.292,7.148-2.321,14.791-3.266,22.238-2.668,21.019-13.043,40.973-28.716,55.231-1.777,1.617-3.787,3.235-6.18,3.443-2.366,.206-4.597-1.009-6.661-2.184-8.618-4.907-17.373-9.92-24.189-17.124-6.816-7.204-11.53-17.055-10.258-26.891,1.149-8.882,6.843-16.383,11.157-24.232,4.314-7.849,7.292-17.72,2.917-25.535-.56-1.001-1.267-1.974-2.279-2.513-1.227-.654-2.697-.575-4.086-.507-11.483,.558-23.061-.882-34.058-4.236-4.816-1.469-9.9-3.618-12.345-8.019-4.381-7.889,2.058-17.812,.091-26.619-.233-1.044-.624-2.119-1.461-2.785-1.132-.9-2.732-.809-4.172-.674-6.126,.576-12.251,1.151-18.377,1.727-2.622,.246-5.426,.458-7.734-.81-4.193-2.302-4.641-8.003-6.671-12.333-4.167-8.888-15.408-11.951-25.22-11.656s-19.7,2.881-29.332,.989c-3.008-.591-6.04-1.684-8.185-3.873-3.03-3.092-3.744-7.77-3.658-12.098,.387-19.456,14.238-37.014,31.766-45.469,17.528-8.455,38.04-8.88,57.145-5.176,19.105,3.704,37.202,11.271,55.332,18.343,2.227,.869,4.95,1.67,6.831,.196,.89-.697,1.382-1.774,1.8-2.823,4.333-10.874,4.615-24.028,13.015-32.18,5.788-5.617,14.404-7.511,22.442-6.85,8.002,.658,15.625,3.552,23.122,6.426-.114-.077-.229-.152-.355-.222l.458,.261-.103-.039c4.513,3.028,.152,11.735,4.038,15.871,1.866,1.985,5,2.129,7.202,3.733,3.508,2.555,3.47,8.041,1.313,11.806-2.157,3.765-5.827,6.361-9.023,9.295-3.197,2.934-6.156,6.723-6.078,11.062,.078,4.339,4.76,8.553,8.673,6.677,1.18-.566,2.184-1.603,3.486-1.733,1.326-.132,2.528,.717,3.588,1.523,8.549,6.499,17.204,13.101,23.765,21.602,6.561,8.501,10.891,19.272,9.465,29.915Z" fill="#0071bc"/>
      <path d="M1369.246,1070.792c.078,4.339,4.76,8.553,8.673,6.677,1.18-.566,2.184-1.603,3.486-1.733,1.326-.132,2.528,.717,3.589,1.523,2.387,1.814,4.777,3.642,7.133,5.512-4.579-8.49-9.58-16.718-14.977-24.656-.616,.533-1.229,1.068-1.825,1.615-3.197,2.934-6.156,6.723-6.078,11.062Z" fill="#0071bc"/>
      <path d="M1371.439,1018.804c.126,.069,.241,.145,.355,.222l.103,.039-.458-.261Z" fill="#5e852a"/>
      <path d="M1313.215,1051.629c-.418,1.05-.911,2.127-1.8,2.823-1.882,1.473-4.605,.672-6.831-.196-18.13-7.072-36.228-14.639-55.332-18.343-19.105-3.704-39.617-3.278-57.144,5.176s-31.378,26.013-31.766,45.469c-.086,4.328,.628,9.006,3.658,12.098,2.145,2.189,5.177,3.282,8.185,3.873,9.632,1.893,19.52-.693,29.332-.989,9.812-.295,21.054,2.767,25.22,11.656,2.03,4.331,2.479,10.031,6.671,12.333,2.308,1.268,5.112,1.056,7.734,.81,6.126-.576,12.251-1.151,18.377-1.727,1.44-.135,3.04-.226,4.172,.674,.837,.666,1.228,1.741,1.461,2.785,1.967,8.806-4.472,18.73-.091,26.619,2.444,4.402,7.529,6.551,12.345,8.019,10.997,3.354,22.574,4.794,34.058,4.236,1.389-.067,2.859-.147,4.086,.507,1.012,.54,1.719,1.513,2.279,2.513,4.375,7.815,1.397,17.686-2.917,25.535-4.314,7.849-10.008,15.349-11.157,24.232-1.273,9.835,3.442,19.687,10.258,26.891,6.816,7.204,15.571,12.217,24.189,17.124,2.064,1.175,4.295,2.389,6.661,2.184,2.394-.208,4.403-1.827,6.18-3.443,15.673-14.258,26.048-34.212,28.716-55.231,.945-7.447,.975-15.089,3.266-22.238,5.696-17.769,24.256-29.563,32.016-45.84-5.615-19.777-13.344-38.663-22.914-56.409-2.356-1.87-4.746-3.698-7.133-5.512-1.061-.806-2.263-1.655-3.589-1.523-1.302,.13-2.306,1.167-3.486,1.733-3.913,1.876-8.595-2.339-8.673-6.677s2.881-8.127,6.078-11.062c.596-.547,1.209-1.081,1.825-1.615-11.094-16.318-23.858-31.408-38.045-45.028-4.824,.93-9.368,2.959-12.874,6.361-8.4,8.152-8.682,21.306-13.015,32.18Z" fill="#5e852a"/>
      <path d="M1215.394,1215.111c-1.061-.806-2.263-1.655-3.588-1.523-1.302,.13-2.306,1.167-3.486,1.733-3.913,1.876-8.595-2.339-8.673-6.677-.078-4.339,2.881-8.127,6.078-11.062,3.197-2.934,6.866-5.53,9.023-9.295,2.157-3.765,2.195-9.252-1.313-11.806-2.202-1.604-5.337-1.748-7.202-3.733-3.886-4.136,.475-12.843-4.038-15.871-7.497-2.875-15.121-5.769-23.122-6.426-8.038-.661-16.654,1.234-22.442,6.85-8.4,8.152-8.682,21.306-13.015,32.18-.418,1.05-.911,2.127-1.8,2.823-1.882,1.474-4.605,.672-6.831-.196-18.13-7.072-36.228-14.639-55.332-18.343-19.105-3.704-39.617-3.279-57.145,5.176-17.528,8.455-31.378,26.013-31.766,45.469-.086,4.328,.628,9.006,3.658,12.098,2.146,2.189,5.177,3.282,8.185,3.873,9.632,1.893,19.52-.693,29.332-.989s21.054,2.767,25.22,11.656c2.03,4.331,2.479,10.031,6.671,12.333,2.308,1.268,5.112,1.056,7.734,.81,6.126-.576,12.251-1.151,18.377-1.727,1.44-.135,3.04-.226,4.172,.674,.837,.666,1.228,1.741,1.461,2.785,1.967,8.806-4.472,18.73-.091,26.619,2.444,4.402,7.529,6.551,12.345,8.019,10.997,3.354,22.574,4.794,34.058,4.236,1.389-.067,2.859-.147,4.086,.507,1.012,.54,1.719,1.513,2.279,2.513,4.375,7.815,1.397,17.686-2.917,25.535-4.314,7.849-10.008,15.349-11.157,24.232-1.273,9.835,3.442,19.687,10.258,26.891,6.816,7.204,15.571,12.217,24.189,17.124,2.064,1.175,4.295,2.389,6.661,2.184,2.394-.208,4.403-1.827,6.18-3.443,15.673-14.258,26.048-34.212,28.716-55.231,.945-7.447,.975-15.089,3.266-22.238,6.838-21.329,32.224-34.044,35.199-56.244,1.426-10.643-2.904-21.414-9.465-29.915-6.561-8.501-15.216-15.104-23.765-21.602Z" fill="#5e852a"/>
      <path d="M1201.84,1156.655c.126,.069,.241,.145,.355,.222l.103,.039-.458-.261Z" fill="#5e852a"/>
      <path d="M1252.466,963.265c-9.72-.558-16.987-9.387-26.389-11.918-9.259-2.492-21.518,.425-26.72-7.63l-.533,2.539c-21.257-2.519-43.193,.964-62.625,9.944-11.503,5.316-22.173,12.52-34.209,16.484-10.552,3.475-21.752,4.326-32.788,5.6-17.568,2.028-35.005,5.185-52.168,9.447-5.692,1.413-11.549,3.046-16.061,6.792-10.308,8.557-9.881,24.235-15.082,36.581-6.998,16.611-23.828,26.382-38.364,37.039-14.536,10.658-28.823,26.226-26.511,44.102,23.462-8.752,44.927-22.032,67.521-32.831,22.593-10.798,47.244-19.25,72.207-17.278,13.861,1.095,27.271,5.365,41.026,7.397,6.631,.979,13.566,1.409,19.89-.813,6.324-2.222,11.91-7.648,12.536-14.322,.102-1.087,.055-2.248-.53-3.169-.528-.831-1.418-1.35-2.273-1.838-5.721-3.259-11.441-6.518-17.162-9.777,9.093-7.338,21.193-9.371,32.275-13.076,11.082-3.705,22.643-10.675,25.16-22.086-7.9-.576-15.856-.371-23.715,.613-1.709-3.915,2.548-7.716,6.312-9.736,16.785-9.008,35.473-14.449,54.47-15.858,1.539-.114,3.29-.127,4.371,.975,1.515,1.543,.725,4.114-.2,6.068-3.446,7.284-7.555,14.255-12.26,20.797,27.957-.068,55.727-11.42,75.725-30.956,1.844-1.801,3.715-3.846,4.081-6.398,.007-.048,.003-.094,.009-.143-5.318-2.948-10.74-5.73-16.262-8.337-3.906,.803-7.768,2.013-11.732,1.785Z" fill="#bae7ff"/>
    </g>
    <g>
      <path d="M1939.232,1876.368c-77.748,0-150.842-30.276-205.818-85.253-54.976-54.976-85.253-128.069-85.253-205.817s30.277-150.843,85.253-205.818c54.976-54.977,128.071-85.253,205.818-85.253s150.842,30.276,205.818,85.253c54.976,54.976,85.252,128.07,85.252,205.818s-30.276,150.842-85.252,205.817c-54.976,54.977-128.07,85.253-205.818,85.253Z" fill="#bae3ff"/>
      <path d="M1939.232,1872.738c-76.778,0-148.961-29.899-203.251-84.189-54.29-54.291-84.19-126.474-84.19-203.251s29.899-148.961,84.19-203.252c54.29-54.29,126.473-84.189,203.251-84.189s148.961,29.899,203.251,84.189c54.29,54.291,84.189,126.474,84.189,203.252s-29.899,148.96-84.189,203.251c-54.29,54.29-126.473,84.189-203.251,84.189Z" fill="#73c7ff"/>
      <circle cx="1939.232" cy="1585.298" r="281.594" fill="#0071bc"/>
    </g>
    <path d="M2167.008,1388.12c-7.53-2.888-15.187-5.805-23.225-6.465s-16.654,1.234-22.442,6.85c-8.4,8.152-8.682,21.306-13.015,32.18-.418,1.05-.911,2.127-1.8,2.823-1.882,1.473-4.605,.672-6.831-.196-18.13-7.072-36.228-14.639-55.332-18.343-19.105-3.704-39.617-3.278-57.144,5.176-17.528,8.455-31.379,26.013-31.766,45.469-.086,4.328,.628,9.006,3.658,12.098,2.145,2.189,5.177,3.282,8.185,3.873,9.632,1.893,19.52-.693,29.332-.989,9.812-.295,21.054,2.767,25.22,11.656,2.03,4.331,2.479,10.031,6.671,12.334,2.308,1.268,5.112,1.056,7.734,.81l18.377-1.727c1.44-.135,3.04-.226,4.172,.674,.837,.666,1.228,1.741,1.461,2.785,1.967,8.806-4.472,18.73-.091,26.619,2.444,4.402,7.529,6.551,12.345,8.019,10.997,3.354,22.574,4.794,34.058,4.236,1.389-.067,2.859-.147,4.086,.507,1.012,.54,1.719,1.513,2.279,2.513,4.375,7.815,1.397,17.686-2.917,25.535s-10.008,15.349-11.157,24.232c-1.273,9.835,3.442,19.687,10.258,26.891,6.816,7.204,15.571,12.217,24.189,17.124,2.064,1.175,4.295,2.389,6.661,2.184,2.394-.208,4.403-1.827,6.18-3.443,15.673-14.258,26.048-34.212,28.716-55.231,.945-7.447,.975-15.089,3.266-22.238,6.838-21.329,32.224-34.044,35.199-56.244,1.426-10.643-2.904-21.414-9.465-29.915-6.561-8.501-15.216-15.104-23.765-21.602-1.061-.806-2.263-1.655-3.588-1.523-1.302,.13-2.306,1.167-3.486,1.733-3.913,1.876-8.595-2.339-8.673-6.677s2.881-8.127,6.078-11.062,6.866-5.53,9.023-9.295c2.157-3.765,2.195-9.252-1.313-11.806-2.202-1.604-5.337-1.748-7.202-3.733-3.984-4.24,.706-13.289-4.393-16.092" fill="#5e852a"/>
    <path d="M1997.409,1525.971c-7.53-2.888-15.187-5.805-23.225-6.465-8.038-.661-16.654,1.234-22.442,6.85-8.4,8.152-8.682,21.306-13.015,32.18-.418,1.05-.911,2.127-1.8,2.823-1.882,1.473-4.605,.672-6.831-.196-18.13-7.072-36.228-14.639-55.332-18.343s-39.617-3.278-57.144,5.176c-17.528,8.455-31.379,26.013-31.766,45.469-.086,4.328,.628,9.006,3.658,12.098,2.145,2.189,5.177,3.282,8.185,3.873,9.632,1.893,19.52-.693,29.332-.989,9.812-.295,21.054,2.767,25.22,11.656,2.03,4.331,2.479,10.031,6.671,12.334,2.308,1.268,5.112,1.056,7.734,.81l18.377-1.727c1.44-.135,3.04-.226,4.172,.674,.837,.666,1.228,1.741,1.461,2.785,1.967,8.806-4.472,18.73-.091,26.619,2.444,4.402,7.529,6.551,12.345,8.019,10.997,3.354,22.574,4.794,34.058,4.236,1.389-.067,2.859-.147,4.086,.507,1.012,.54,1.719,1.513,2.279,2.513,4.375,7.815,1.397,17.686-2.917,25.535s-10.008,15.349-11.157,24.232c-1.273,9.835,3.442,19.687,10.258,26.891,6.816,7.204,15.571,12.217,24.189,17.124,2.064,1.175,4.295,2.389,6.661,2.184,2.394-.208,4.403-1.827,6.18-3.443,15.673-14.258,26.048-34.212,28.716-55.231,.945-7.447,.975-15.089,3.266-22.238,6.838-21.329,32.224-34.044,35.199-56.244,1.426-10.643-2.904-21.414-9.465-29.915-6.561-8.501-15.216-15.104-23.765-21.602-1.061-.806-2.263-1.655-3.588-1.523-1.302,.13-2.306,1.167-3.486,1.733-3.913,1.876-8.595-2.339-8.673-6.677s2.881-8.127,6.078-11.062,6.866-5.53,9.023-9.295c2.157-3.765,2.195-9.252-1.313-11.806-2.202-1.604-5.337-1.748-7.202-3.733-3.984-4.24,.706-13.289-4.393-16.092" fill="#5e852a"/>
    <path d="M2064.104,1329.881c-5.579,.231-10.952,2.759-16.527,2.439-9.72-.558-16.987-9.387-26.389-11.918-9.259-2.492-21.518,.425-26.72-7.63l-.533,2.539c-21.257-2.519-43.193,.964-62.625,9.944-11.503,5.316-22.173,12.52-34.209,16.484-10.552,3.475-21.752,4.326-32.788,5.6-17.568,2.028-35.005,5.185-52.168,9.447-5.692,1.413-11.549,3.046-16.061,6.792-10.308,8.557-9.881,24.235-15.082,36.581-6.998,16.611-23.828,26.382-38.364,37.039-14.536,10.658-28.823,26.226-26.511,44.102,23.462-8.752,44.927-22.032,67.521-32.831,22.593-10.798,47.244-19.25,72.207-17.278,13.861,1.095,27.271,5.365,41.026,7.397,6.631,.979,13.566,1.409,19.89-.813,6.324-2.222,11.91-7.648,12.536-14.322,.102-1.087,.055-2.248-.53-3.169-.528-.831-1.418-1.35-2.273-1.838-5.721-3.259-11.441-6.518-17.162-9.777,9.093-7.338,21.193-9.371,32.275-13.076,11.082-3.705,22.643-10.675,25.16-22.086-7.9-.576-15.856-.371-23.715,.613-1.709-3.915,2.548-7.716,6.312-9.736,16.785-9.008,35.473-14.449,54.47-15.858,1.539-.114,3.29-.127,4.371,.975,1.515,1.543,.725,4.114-.2,6.068-3.446,7.284-7.555,14.255-12.26,20.797,27.957-.068,55.727-11.42,75.725-30.956,1.844-1.801,3.715-3.846,4.081-6.398,.794-5.527-5.878-9.364-11.458-9.133Z" fill="#bae7ff"/>
  </g>
</svg>